<svg width="168" height="50" fill="none" xmlns="http://www.w3.org/2000/svg"><rect width="168" height="50" rx="5" fill="#201D24"/><path d="M133.074 37.5h2.323V21.873h-2.323V37.5zm20.916-9.997l-2.662 6.774h-.08l-2.762-6.774h-2.502l4.144 9.468-2.363 5.268h2.422l6.385-14.736h-2.582zm-13.17 8.222c-.759 0-1.821-.382-1.821-1.327 0-1.206 1.322-1.669 2.462-1.669 1.02 0 1.502.221 2.122.523-.181 1.448-1.422 2.473-2.763 2.473zm.281-8.564c-1.681 0-3.422.744-4.143 2.392l2.061.864c.441-.864 1.261-1.145 2.122-1.145 1.201 0 2.422.723 2.442 2.01v.16c-.421-.24-1.322-.602-2.422-.602-2.223 0-4.484 1.226-4.484 3.518 0 2.09 1.822 3.438 3.863 3.438 1.56 0 2.423-.704 2.962-1.528h.081v1.207h2.242v-5.992c0-2.774-2.063-4.322-4.724-4.322zm-14.351 2.244h-3.303v-5.357h3.303c1.736 0 2.722 1.444 2.722 2.679 0 1.21-.986 2.678-2.722 2.678zm-.06-7.532h-5.564V37.5h2.321v-5.92h3.243c2.574 0 5.104-1.871 5.104-4.853 0-2.982-2.53-4.854-5.104-4.854zM96.35 35.728c-1.605 0-2.948-1.35-2.948-3.202 0-1.873 1.343-3.242 2.947-3.242 1.584 0 2.827 1.369 2.827 3.242 0 1.852-1.243 3.202-2.827 3.202zm2.666-7.35h-.08c-.522-.625-1.525-1.189-2.787-1.189-2.647 0-5.073 2.337-5.073 5.337 0 2.98 2.426 5.296 5.073 5.296 1.262 0 2.265-.564 2.786-1.208h.08v.765c0 2.035-1.082 3.122-2.826 3.122-1.423 0-2.305-1.027-2.667-1.893l-2.024.846c.58 1.409 2.124 3.141 4.69 3.141 2.728 0 5.033-1.611 5.033-5.538v-9.545h-2.206v.866zm3.81 9.122h2.324V21.873h-2.324V37.5zm5.753-5.155c-.06-2.054 1.584-3.101 2.767-3.101.922 0 1.703.463 1.965 1.127l-4.732 1.974zm7.217-1.773c-.441-1.187-1.784-3.383-4.531-3.383-2.727 0-4.992 2.155-4.992 5.317 0 2.98 2.246 5.316 5.253 5.316 2.425 0 3.829-1.49 4.411-2.356l-1.805-1.208c-.601.886-1.423 1.47-2.606 1.47-1.183 0-2.025-.544-2.566-1.611l7.077-2.94-.241-.605zm-56.383-1.751v2.255h5.373c-.16 1.269-.582 2.195-1.223 2.84-.782.785-2.005 1.65-4.15 1.65-3.308 0-5.894-2.677-5.894-6s2.586-6.002 5.894-6.002c1.784 0 3.087.706 4.05 1.612l1.584-1.591c-1.344-1.29-3.128-2.276-5.634-2.276-4.532 0-8.34 3.706-8.34 8.257 0 4.55 3.808 8.256 8.34 8.256 2.446 0 4.29-.805 5.734-2.316 1.483-1.49 1.945-3.584 1.945-5.276 0-.523-.04-1.006-.121-1.41h-7.558zM73.2 35.728c-1.604 0-2.988-1.33-2.988-3.222 0-1.913 1.384-3.222 2.988-3.222s2.987 1.309 2.987 3.222c0 1.893-1.383 3.222-2.987 3.222zm0-8.539c-2.928 0-5.313 2.236-5.313 5.317 0 3.06 2.385 5.316 5.313 5.316 2.927 0 5.313-2.255 5.313-5.316 0-3.081-2.386-5.317-5.313-5.317zm11.59 8.539c-1.604 0-2.988-1.33-2.988-3.222 0-1.913 1.384-3.222 2.987-3.222 1.605 0 2.987 1.309 2.987 3.222 0 1.893-1.382 3.222-2.987 3.222zm0-8.539c-2.927 0-5.313 2.236-5.313 5.317 0 3.06 2.386 5.316 5.312 5.316 2.928 0 5.314-2.255 5.314-5.316 0-3.081-2.386-5.317-5.314-5.317zM55.35 16.543c-1.116 0-2.076-.394-2.85-1.171-.774-.778-1.166-1.752-1.166-2.884s.392-2.104 1.166-2.883c.774-.777 1.734-1.171 2.85-1.171a4.2 4.2 0 0 1 1.605.304c.507.205.922.49 1.249.863l.077.088-.87.874-.087-.107a2.158 2.158 0 0 0-.842-.626 2.829 2.829 0 0 0-1.133-.22c-.786 0-1.438.267-1.982.812-.533.556-.8 1.233-.8 2.066 0 .834.268 1.51.8 2.067.545.545 1.197.814 1.982.814.72 0 1.315-.202 1.782-.6.436-.373.697-.875.79-1.515h-2.696v-1.152h3.861l.017.105c.031.203.053.398.053.586 0 1.075-.326 1.953-.966 2.599-.723.77-1.673 1.151-2.84 1.151zm33.527 0c-1.118 0-2.066-.395-2.83-1.171-.765-.77-1.145-1.743-1.145-2.884 0-1.14.38-2.114 1.145-2.883.764-.777 1.712-1.171 2.83-1.171 1.115 0 2.064.394 2.828 1.183.765.768 1.144 1.74 1.144 2.871 0 1.14-.38 2.115-1.144 2.883-.764.778-1.722 1.172-2.828 1.172zm-28.616-.168V8.602h4.622v1.175h-3.41v2.135h3.076v1.152h-3.076v2.137h3.41v1.174h-4.622zm7.451 0V9.777H65.62V8.602h5.396v1.175h-2.093v6.598h-1.211zm6.752 0V8.602h1.212v7.773h-1.212zm4.26 0V9.777h-2.091V8.602h5.395v1.175h-2.092v6.598h-1.211zm15.2 0V8.602h1.367l3.476 5.59-.03-1.061V8.6h1.212v7.774h-1.2l-3.643-5.873.03 1.06v4.813h-1.211zm-5.047-1.006c.786 0 1.427-.27 1.95-.813v-.001h.002c.53-.534.79-1.22.79-2.067 0-.845-.26-1.533-.79-2.066h-.001v-.001c-.524-.544-1.165-.812-1.951-.812-.787 0-1.429.267-1.962.811-.52.546-.78 1.223-.78 2.068 0 .847.26 1.522.78 2.068.533.544 1.175.813 1.962.813z" fill="#EFEFEF"/><path d="M25.778 24.279L12.53 38.404l.002.008a3.58 3.58 0 0 0 3.457 2.663c.661 0 1.282-.18 1.815-.495l.042-.025 14.914-8.644-6.98-7.632z" fill="#EA4335"/><path d="M39.182 21.874l-.012-.009-6.439-3.75-7.254 6.484 7.28 7.31 6.404-3.711a3.599 3.599 0 0 0 1.885-3.169 3.594 3.594 0 0 0-1.864-3.155z" fill="#FBBC04"/><path d="M12.529 11.595a3.54 3.54 0 0 0-.122.925v24.96c0 .32.042.63.122.924L26.234 24.64 12.53 11.595z" fill="#4285F4"/><path d="M25.875 25l6.858-6.886-14.896-8.676a3.575 3.575 0 0 0-1.85-.513 3.584 3.584 0 0 0-3.458 2.667v.003L25.874 25z" fill="#34A853"/></svg>