<svg width="456" height="472" viewBox="0 0 456 472" fill="none" xmlns="http://www.w3.org/2000/svg">
<path opacity="0.2" d="M219.719 155.421C221.597 152.616 224.663 150.992 228.025 150.992C231.288 150.992 234.403 152.616 236.232 155.322C236.479 155.667 236.726 156.11 236.924 156.553L343.915 341H385L243.698 97.3011C240.583 91.5433 234.551 88 228.025 88C221.696 88 215.813 91.3957 212.599 96.8582L212.055 97.744L71 340.951H112.085L219.175 156.356C219.323 156.011 219.521 155.716 219.719 155.421Z" fill="#539266"/>
<path opacity="0.2" d="M448.652 326.819L289.728 51.6497H289.777L275.859 27.5761C266.037 10.5569 247.677 0 228.034 0C208.39 0 190.08 10.5569 180.209 27.5761L174.779 36.9983L7.36628 326.819C-2.45543 343.838 -2.45543 365.001 7.36628 381.971C17.188 398.99 35.4988 409.547 55.1422 409.547L100.105 409.596L102.622 409.547H190.277H191.067C201.678 409.991 209.97 418.624 209.97 429.181V472H245.506V429.181C245.506 398.743 220.729 373.979 190.277 373.979H54.7967C47.9363 373.831 41.5695 370.033 38.164 364.162C34.6598 358.094 34.6598 350.547 38.164 344.479L211.204 44.9406C214.757 39.0702 221.223 35.4197 228.083 35.4197C234.944 35.4197 241.409 39.0702 244.963 44.9406L417.953 344.43C421.457 350.497 421.457 358.045 417.953 364.113C414.548 369.983 408.181 373.782 401.37 373.93H341.6H340.564C333.556 373.93 326.991 370.131 323.487 364.064L243.729 225.936C240.619 220.165 234.598 216.613 228.083 216.613C221.766 216.613 215.892 220.017 212.684 225.492L212.141 226.38L145.364 341.963H186.378L219.199 285.331C219.347 284.986 219.545 284.69 219.742 284.394C221.618 281.582 224.678 279.954 228.034 279.954C231.291 279.954 234.401 281.582 236.227 284.295C236.474 284.64 236.72 285.084 236.918 285.528L292.64 382.02C302.462 399.039 320.772 409.596 340.416 409.596H352.459L352.409 409.645H378.37H386.81H388.932H400.728C420.372 409.645 438.682 399.039 448.504 382.069C458.474 365.001 458.474 343.838 448.652 326.819Z" fill="#539266"/>
</svg>
