<svg width="92" height="100" fill="none" xmlns="http://www.w3.org/2000/svg"><path d="M83.016 89.219a1.798 1.798 0 1 1-.002 3.595 1.798 1.798 0 0 1 .002-3.595zm-21.563-7.188a1.798 1.798 0 1 1-.001 3.595 1.798 1.798 0 0 1 .001-3.595z" fill="#40AC6C"/><path d="M38 10.338v2.443m0-2.442h2.443a2.442 2.442 0 1 0 0-4.886H38v4.886zM50.073 2v10.781M57.26 2v10.781m-7.187-7.187h7.187M40.855 32.58a14.208 14.208 0 0 1 7.42-2.08c6.203 0 11.483 3.966 13.44 9.5h9.835c-2.202-10.84-11.785-19-23.275-19a23.641 23.641 0 0 0-14.25 4.75A23.76 23.76 0 0 0 25 40h9.835a14.314 14.314 0 0 1 6.02-7.42zm7.42 7.42l-14.25-14.25m41.803 34.36c7.939 0 14.375-6.437 14.375-14.376v-3.593c-7.939 0-14.375 6.436-14.375 14.375v3.593zm0 0a12.266 12.266 0 0 0-3.594 8.675v1.49m-7.187-6.572h3.594c0-5.955-4.827-10.781-10.782-10.781h-3.593c0 5.955 4.826 10.781 10.78 10.781z" stroke="#40AC6C" stroke-width="2.5" stroke-miterlimit="10" stroke-linecap="round" stroke-linejoin="round"/><path d="M68.64 63.703l1.488 1.488a7.186 7.186 0 0 1 2.106 5.083v13.554m-3.594 7.188l3.594-7.188 3.594 7.188M29 68c6.075 0 11-5.015 11-11.2V54c-6.075 0-11 5.015-11 11.2V68z" stroke="#40AC6C" stroke-width="2.5" stroke-miterlimit="10" stroke-linecap="round" stroke-linejoin="round"/><path d="M29.33 67.609a9.29 9.29 0 0 0-2.721 6.57v1.128m-5.444-4.977h2.722a8.165 8.165 0 0 0-8.165-8.165H13a8.165 8.165 0 0 0 8.165 8.165z" stroke="#40AC6C" stroke-width="2.5" stroke-miterlimit="10" stroke-linecap="round" stroke-linejoin="round"/><path d="M23.887 70.33l1.127 1.127a5.443 5.443 0 0 1 1.595 3.85v10.265m-2.722 5.444l2.721-5.444 2.722 5.444m-16.752-7.188h3.594M1.797 91.016h10.781m28.75-7.188h12.938m-16.532 7.188H46m33.422-7.188h10.781m-37.015 7.188h4.671" stroke="#40AC6C" stroke-width="2.5" stroke-miterlimit="10" stroke-linecap="round" stroke-linejoin="round"/><path d="M37.914 98.203H1.797V76.641h88.406v21.562H54.086" stroke="#40AC6C" stroke-width="2.5" stroke-miterlimit="10" stroke-linecap="round" stroke-linejoin="round"/><path d="M44.203 98.203a1.797 1.797 0 1 0 3.594 0 1.797 1.797 0 0 0-3.594 0z" fill="#40AC6C"/></svg>