<svg width="34" height="30" fill="none" xmlns="http://www.w3.org/2000/svg"><path d="M26.925 5.634l2.347-2.357m-.939 5.657l3.206-.863m-7.9-3.851L24.498 1m-4.909 16h11.42c1.1 0 1.991-.895 1.991-2s-.892-2-1.992-2H20.277a1.998 1.998 0 0 1-1.924-2.518l.963-3.608a2 2 0 0 0-1.409-2.45 1.99 1.99 0 0 0-2.439 1.415l-.46 1.726A7.308 7.308 0 0 1 7.954 13H5.647v13.333h3.32l.796 1.067A3.978 3.978 0 0 0 12.95 29h7.967c1.1 0 1.992-.895 1.992-2s-.892-2-1.992-2h-1.328 2.656c1.1 0 1.991-.895 1.991-2s-.891-2-1.991-2h-2.656 3.984c1.1 0 1.991-.895 1.991-2s-.891-2-1.991-2h-3.984zM1 11h4.647v17.333H1V11z" stroke="#40AC6C" stroke-width="1.5" stroke-miterlimit="10" stroke-linecap="round" stroke-linejoin="round"/></svg>