<svg width="32" height="29" fill="none" xmlns="http://www.w3.org/2000/svg"><path d="M28.625 0H7.933C6.137 0 4.676 1.453 4.676 3.233l-.133 18.29H.505c-.286 0-.505.253-.505.54v2.518c0 2.356 1.879 4.283 4.146 4.389V29H21.57v-.034c.13.005.208.034.297.034h.012c2.418-.014 4.367-1.993 4.355-4.42V8.583h5.26c.286 0 .505-.26.505-.547V3.417A3.405 3.405 0 0 0 28.625 0zM4.37 27.96c-1.843 0-3.333-1.53-3.333-3.38v-2.017H17.49v2.009a4.41 4.41 0 0 0 1.28 3.124c.088.088.18.134.273.264H4.369zm20.83-3.38c0 1.85-1.475 3.38-3.32 3.38h-.01a3.373 3.373 0 0 1-3.343-3.388v-2.508a.538.538 0 0 0-.518-.542H5.58l.134-18.286c0-1.21.996-2.196 2.22-2.196H26.18c-.59.65-.98 1.473-.98 2.391V24.58zm5.765-17.037h-4.73V3.43c0-1.302 1.08-2.39 2.376-2.39h.015a2.367 2.367 0 0 1 2.339 2.383v4.12z" fill="#40AC6C"/><path d="M12.169 12.804l2.672 1.833a.507.507 0 0 0 .579 0l2.664-1.833c.925-.633 1.608-1.958 1.608-3.082v-3.71a.509.509 0 0 0-.276-.467l-4.068-2.008a.507.507 0 0 0-.453 0l-4.06 2.003a.508.508 0 0 0-.276.467v3.715c0 1.124.685 2.449 1.61 3.082zm-.574-6.472l3.53-1.749 3.53 1.753v3.386c0 .784-.51 1.78-1.156 2.222l-2.38 1.634-2.37-1.633c-.645-.443-1.154-1.44-1.154-2.223v-3.39z" fill="#40AC6C"/><path d="M14.249 10.508a.519.519 0 0 0 .367.156h.001c.138 0 .27-.056.367-.154l2.061-2.07a.522.522 0 0 0 0-.736.517.517 0 0 0-.733 0L14.62 9.402l-.677-.686a.517.517 0 0 0-.733-.003.522.522 0 0 0-.003.736l1.043 1.058zm7.321 5.618H9.135a.52.52 0 0 0 0 1.04H21.57a.52.52 0 0 0 0-1.04zm0 2.405H9.135a.52.52 0 0 0 0 1.04H21.57a.52.52 0 0 0 0-1.04z" fill="#40AC6C"/></svg>