<svg width="34" height="34" fill="none" xmlns="http://www.w3.org/2000/svg"><path d="M10.364 3.969H8.05m0 0v1.249c0 .687-.563 1.25-1.25 1.25h-.803a1.254 1.254 0 0 1-1.25-1.25v-1.25m3.303 0H4.747m0 0H2.794c-.687 0-1.25-.563-1.25-1.25v-.936c0-.171.141-.313.315-.313h30.282c.172 0 .314.141.314.313v.936c0 .687-.562 1.25-1.25 1.25h-1.952m0 0v1.25c0 .687-.563 1.25-1.25 1.25H27.2c-.687 0-1.25-.563-1.25-1.25v-1.25m3.303 0H25.95m0 0h-7.3m0 0v1.25c0 .687-.561 1.25-1.249 1.25H16.6a1.255 1.255 0 0 1-1.251-1.25v-1.25m3.302 0h-3.302m0 0H12.53M6.398 8.416v1.039m0 2.085v1.04m-2.24-4.764l-.754.714m5.233-.714l.753.714m18.212-.114v1.039m0 2.085v1.04m-2.24-4.764l-.754.714m5.232-.714l.755.714m-13.596-.114v1.039m0 2.085v1.04m-2.24-4.764l-.752.714m5.231-.714l.755.714m-4.055 20.877H2.376c-1.21 0-1.21-5.214 0-5.214H17m0 0h14.625c1.208 0 1.208 5.214 0 5.214H18.002m-1.003-5.214c1.258 0 2.286.63 2.286 1.405 0 .772-1.028 1.403-2.286 1.403s-2.283-.63-2.283-1.403c0-.774 1.025-1.405 2.283-1.405zm-10.578-4.5c0-1.196.967-2.273 2.152-2.392l1.8-.18a.334.334 0 0 1 .374.34v1.796c0 1.196-.969 2.271-2.152 2.392l-2.174.218m2.007-2.22l-1.9 2.1m-.107-2.291l-2.176-.22c-1.183-.119-2.152-1.196-2.152-2.392V15.05c0-.21.17-.362.375-.342l1.8.182c1.184.119 2.153 1.196 2.153 2.392v8.316m-2.01-8.364l1.9 2.101m10.688.358c0-1.196.97-2.273 2.153-2.392l1.8-.18a.335.335 0 0 1 .375.34v1.796c0 1.196-.969 2.271-2.152 2.392l-2.176.218m2.01-2.22l-1.9 2.1m-.11-2.291l-2.174-.22c-1.183-.119-2.152-1.196-2.152-2.392V15.05c0-.21.168-.362.374-.342l1.8.182c1.183.119 2.152 1.196 2.152 2.392v8.316m-2.007-8.364l1.9 2.101m10.687.358c0-1.196.968-2.273 2.153-2.392l1.8-.18a.334.334 0 0 1 .373.34v1.796c0 1.196-.969 2.271-2.152 2.392l-2.174.218m2.007-2.22l-1.899 2.1m-.108-2.291l-2.175-.22c-1.184-.119-2.153-1.196-2.153-2.392V15.05c0-.21.168-.362.376-.342l1.8.182c1.183.119 2.152 1.196 2.152 2.392v8.316m-2.009-8.364l1.9 2.101M6.42 27c1.259 0 2.284-.63 2.284-1.403 0-.774-1.025-1.405-2.283-1.405-1.26 0-2.286.63-2.286 1.405 0 .772 1.026 1.403 2.286 1.403zm21.16 0c1.257 0 2.283-.63 2.283-1.403 0-.774-1.026-1.405-2.284-1.405-1.26 0-2.285.63-2.285 1.405 0 .772 1.026 1.403 2.285 1.403zm1.948 2.406h-3.897v2.82c0 .167.136.305.304.305h3.288a.307.307 0 0 0 .305-.304v-2.821zm-25.056 0H8.37v2.82a.307.307 0 0 1-.305.305H4.777a.306.306 0 0 1-.305-.304v-2.821z" stroke="#40AC6C" stroke-miterlimit="10" stroke-linecap="round" stroke-linejoin="round"/></svg>