<svg width="30" height="33" fill="none" xmlns="http://www.w3.org/2000/svg"><path d="M2.025 6.756h17.362v.87c0 1.083.913 1.966 2.025 1.966 1.113 0 2.026-.883 2.026-1.966v-.87h4.537c1.119 0 2.025-.883 2.025-1.96 0-1.076-.9-1.96-2.019-1.96h-4.537V1.96C23.444.877 22.532 0 21.42 0s-2.025.883-2.025 1.96v.876H2.025C.906 2.836 0 3.72 0 4.796c0 1.077.906 1.96 2.025 1.96zm25.956-2.888c.527 0 .96.419.96.928 0 .51-.433.929-.96.929h-4.537V3.868h4.537zM20.46 1.96c0-.51.433-.929.959-.929s.96.42.96.929v5.666c0 .516-.434.929-.96.929s-.96-.42-.96-.929V1.96zM2.025 3.868h17.362v1.857H2.025c-.526 0-.959-.42-.959-.929 0-.509.433-.928.96-.928zm25.956 10.676H11.32v-.877c0-1.083-.913-1.96-2.025-1.96-1.113 0-2.026.883-2.026 1.96v.87H2.025C.906 14.537 0 15.42 0 16.497c0 1.083.913 1.96 2.025 1.96h5.237v.883c0 1.083.913 1.96 2.025 1.96 1.113 0 2.025-.884 2.025-1.96v-.87h16.663c1.119 0 2.025-.884 2.025-1.96.007-1.09-.9-1.967-2.019-1.967zM2.025 17.43c-.526 0-.959-.419-.959-.928 0-.51.433-.928.96-.928h5.236v1.857H2.025zm8.228 1.909c0 .509-.433.928-.96.928-.526 0-.959-.419-.959-.928v-5.673c0-.51.433-.929.96-.929.526 0 .96.42.96.929v5.673zm17.728-1.909H11.32v-1.856h16.662c.527 0 .96.419.96.928 0 .51-.433.928-.96.928zm0 8.82h-8.58v-.87c0-1.084-.913-1.96-2.026-1.96-1.113 0-2.025.883-2.025 1.96v.87H2.025C.906 26.25 0 27.133 0 28.21c0 1.076.906 1.959 2.025 1.959H15.35v.87c0 1.083.912 1.96 2.025 1.96s2.025-.883 2.025-1.96v-.87h8.575c1.119 0 2.025-.883 2.025-1.96 0-1.076-.9-1.96-2.019-1.96zM2.025 29.137c-.526 0-.959-.419-.959-.928 0-.51.433-.928.96-.928H15.35v1.857H2.025zm16.31 1.909c0 .509-.434.928-.96.928s-.96-.419-.96-.928V25.38c0-.51.434-.928.96-.928s.96.419.96.928v5.667zm9.646-1.909h-8.58v-1.856h8.574c.526 0 .959.419.959.928 0 .51-.426.928-.953.928z" fill="#40AC6C"/></svg>