<svg width="30" height="37" fill="none" xmlns="http://www.w3.org/2000/svg"><path d="M26.91 37H10.23c-1.705 0-3.09-1.37-3.09-3.056v-5.829c0-.297.244-.538.544-.538.3 0 .545.241.545.538v5.83c0 1.092.897 1.98 2.002 1.98h16.681c1.103 0 2.002-.888 2.002-1.98V3.058a1.997 1.997 0 0 0-2.006-1.984H10.233c-1.107 0-2.006.89-2.006 1.984v5.837a.542.542 0 0 1-.545.539.542.542 0 0 1-.545-.539V3.06C7.138 1.372 8.526 0 10.232 0h16.675C28.612 0 30 1.373 30 3.06v30.886C30 35.63 28.614 37 26.91 37z" fill="#40AC6C"/><path d="M13.257 26.097H2.11C.946 26.097 0 25.16 0 24.01V12.987c0-1.15.946-2.086 2.11-2.086h11.147c1.163 0 2.11.936 2.11 2.086v11.024c0 1.15-.947 2.086-2.11 2.086zM2.11 11.979c-.562 0-1.02.452-1.02 1.008v11.024c0 .556.458 1.008 1.02 1.008h11.148c.563 0 1.02-.452 1.02-1.008V12.987c0-.556-.457-1.008-1.02-1.008H2.11zm18.892 21.574h-4.866a.542.542 0 0 1-.545-.538c0-.297.245-.539.545-.539h4.866c.3 0 .544.242.544.539a.542.542 0 0 1-.544.538z" fill="#40AC6C"/><path d="M10.177 22.414h-4.99a1.196 1.196 0 0 1-1.201-1.188V17.82c0-.655.538-1.188 1.201-1.188h4.99c.663 0 1.202.533 1.202 1.188v3.405c0 .655-.539 1.188-1.202 1.188zm-4.99-4.704a.114.114 0 0 0-.114.113v3.405c0 .061.05.113.114.113h4.99c.062 0 .114-.05.114-.113V17.82a.114.114 0 0 0-.114-.113l-4.99.002z" fill="#40AC6C"/><path d="M9.29 17.428a.542.542 0 0 1-.545-.538c0-.58-.477-1.05-1.063-1.05-.585 0-1.062.47-1.062 1.05a.542.542 0 0 1-.545.538.542.542 0 0 1-.545-.538c0-1.173.966-2.126 2.15-2.126 1.187 0 2.15.953 2.15 2.126a.536.536 0 0 1-.54.538z" fill="#40AC6C"/></svg>