<svg width="407" height="344" fill="none" xmlns="http://www.w3.org/2000/svg"><path clip-rule="evenodd" d="M198.392 1.438c59.434-3.573 120.272 14.578 158.875 60.066 40.004 47.137 63.493 115.774 38.33 172.305-22.626 50.829-92.525 44.996-144.141 65.404-43.259 17.104-81.065 53.4-125.997 41.401-54.863-14.65-107.9-52.128-121.396-107.464-13.66-56.001 20.657-109.771 57.652-153.882 35.487-42.314 81.663-74.524 136.677-77.83z" stroke="#D9D9D9"/><path clip-rule="evenodd" d="M200.225 31.36c49.748-2.945 100.671 12.022 132.984 49.53 33.485 38.867 53.146 95.462 32.083 142.075-18.939 41.912-77.447 37.103-120.651 53.93-36.209 14.103-67.854 44.031-105.464 34.138-45.922-12.08-90.316-42.983-101.613-88.611-11.434-46.176 17.29-90.513 48.257-126.886 29.703-34.89 68.355-61.449 114.404-64.175z" stroke="#D9D9D9"/><path clip-rule="evenodd" d="M200.645 59.29c39.036-2.361 78.993 9.633 104.348 39.692 26.274 31.149 41.701 76.506 25.174 113.862-14.86 33.59-60.769 29.735-94.67 43.221-28.412 11.302-53.243 35.287-82.754 27.359-36.033-9.682-70.867-34.448-79.731-71.015-8.972-37.006 13.567-72.538 37.865-101.688 23.307-27.962 53.636-49.247 89.768-51.432z" stroke="#D9D9D9"/><path clip-rule="evenodd" d="M201.932 103.177c24.067-1.442 48.702 5.882 64.334 24.237 16.199 19.02 25.711 46.716 15.521 69.526-9.162 20.511-37.467 18.157-58.368 26.392-17.517 6.901-32.826 21.547-51.021 16.705-22.216-5.911-43.693-21.034-49.158-43.362-5.531-22.597 8.365-44.294 23.346-62.093 14.37-17.074 33.068-30.071 55.346-31.405z" stroke="#D9D9D9"/></svg>