<svg width="47" height="47" viewBox="0 0 47 47" fill="none" xmlns="http://www.w3.org/2000/svg">
<path d="M46.082 35.9469H14.7399V33.1781C14.7399 32.6712 14.3288 32.2601 13.8219 32.2601H11.0531V0.917969C11.0531 0.410975 10.642 0 10.1351 0H0.917969C0.410975 0 0 0.410975 0 0.917969V46.082C0 46.5889 0.410975 47 0.917969 47H46.082C46.5889 47 47 46.5889 47 46.082V36.8649C47 36.3579 46.5889 35.9469 46.082 35.9469ZM9.21714 1.83594V4.60857H6.44818C5.94128 4.60857 5.53021 5.01954 5.53021 5.52654C5.53021 6.03353 5.94128 6.44451 6.44818 6.44451H9.21714V9.21714H7.71094C7.20404 9.21714 6.79297 9.62811 6.79297 10.1351C6.79297 10.642 7.20404 11.0531 7.71094 11.0531H9.21714V13.8257H6.44818C5.94128 13.8257 5.53021 14.2367 5.53021 14.7437C5.53021 15.2506 5.94128 15.6616 6.44818 15.6616H9.21714V18.4343H7.71094C7.20404 18.4343 6.79297 18.8453 6.79297 19.3522C6.79297 19.8592 7.20404 20.2702 7.71094 20.2702H9.21714V23.0429H6.44818C5.94128 23.0429 5.53021 23.4539 5.53021 23.9608C5.53021 24.4677 5.94128 24.8788 6.44818 24.8788H9.21714V27.6514H7.71094C7.20404 27.6514 6.79297 28.0624 6.79297 28.5694C6.79297 29.0763 7.20404 29.4874 7.71094 29.4874H9.21714V32.26H1.83594V1.83594H9.21714ZM1.83594 34.096H12.904V45.1641H1.83594V34.096ZM45.1641 45.1641H14.7399V37.7829H17.5125V41.4735C17.5125 41.9804 17.9235 42.3914 18.4305 42.3914C18.9374 42.3914 19.3485 41.9804 19.3485 41.4735V37.7829H22.1211V40.207C22.1211 40.7139 22.5321 41.125 23.0391 41.125C23.5461 41.125 23.9571 40.7139 23.9571 40.207V37.7829H26.7297V41.4735C26.7297 41.9804 27.1408 42.3914 27.6477 42.3914C28.1546 42.3914 28.5656 41.9804 28.5656 41.4735V37.7829H31.3383V40.207C31.3383 40.7139 31.7493 41.125 32.2562 41.125C32.7631 41.125 33.1742 40.7139 33.1742 40.207V37.7829H35.9468V41.4735C35.9468 41.9804 36.3579 42.3914 36.8648 42.3914C37.3717 42.3914 37.7828 41.9804 37.7828 41.4735V37.7829H40.5554V40.207C40.5554 40.7139 40.9665 41.125 41.4734 41.125C41.9803 41.125 42.3913 40.7139 42.3913 40.207V37.7829H45.1641V45.1641Z" fill="#40AC6C"/>
<path d="M15.2756 26.2904L28.678 33.2196C28.6828 33.2221 28.6878 33.2238 28.6926 33.2261C28.9577 33.3576 29.2569 33.35 29.5065 33.2261C29.5545 33.203 40.5403 27.5223 42.9235 26.2903C43.206 26.1491 43.4198 25.8358 43.4198 25.4749C43.4196 21.7791 43.4203 9.82658 43.419 9.75305C43.402 9.12727 42.8685 8.93055 42.8592 8.92293H42.859L29.475 2.92593C29.2361 2.8189 28.9631 2.8189 28.7243 2.92593L15.34 8.92312H15.3398C15.3306 8.9311 14.7793 9.14168 14.7793 9.76893V25.4751C14.7793 25.8338 14.9898 26.1475 15.2756 26.2904ZM41.584 24.9163L30.0176 30.8963V17.2569L41.584 11.2769V24.9163ZM28.1816 30.8963L16.6152 24.9162V11.277L28.1816 17.257V30.8963ZM29.0996 4.76958L40.3889 9.82796L29.0996 15.6647L17.8103 9.82796L29.0996 4.76958Z" fill="#40AC6C"/>
</svg>
