<svg width="48" height="48" viewBox="0 0 48 48" fill="none" xmlns="http://www.w3.org/2000/svg">
<path d="M32.776 14.4435C32.6056 14.4436 32.4422 14.5113 32.3218 14.6318L21.1306 25.823L14.6902 19.3822C14.5674 19.266 14.4049 19.2014 14.236 19.2014C14.067 19.2014 13.9045 19.266 13.7817 19.3822L11.1854 21.9789C11.065 22.0994 10.9973 22.2628 10.9973 22.4331C10.9973 22.6035 11.065 22.7668 11.1854 22.8873L20.6775 32.3788C20.7371 32.4385 20.8079 32.4858 20.8859 32.5182C20.9638 32.5505 21.0474 32.5671 21.1317 32.5671C21.2161 32.5671 21.2997 32.5505 21.3776 32.5182C21.4555 32.4858 21.5263 32.4385 21.5859 32.3788L35.8266 18.137C35.947 18.0165 36.0147 17.853 36.0147 17.6826C36.0147 17.5122 35.947 17.3488 35.8266 17.2282L33.2302 14.6318C33.1098 14.5113 32.9464 14.4436 32.776 14.4435ZM21.1306 31.0158L12.5484 22.4331L14.2374 20.7441L20.6775 27.1856C20.7371 27.2453 20.8079 27.2927 20.8859 27.325C20.9638 27.3573 21.0474 27.374 21.1317 27.374C21.2161 27.374 21.2997 27.3573 21.3776 27.325C21.4555 27.2927 21.5263 27.2453 21.5859 27.1856L32.776 15.9948L34.465 17.6839L21.1306 31.0158Z" fill="#40AC6C"/>
<path d="M23.5049 6.00221C20.0431 6.00221 16.659 7.02874 13.7807 8.95201C10.9023 10.8753 8.65889 13.6089 7.33412 16.8072C6.00935 20.0054 5.66273 23.5247 6.33809 26.92C7.01345 30.3153 8.68046 33.434 11.1283 35.8819C13.5762 38.3297 16.6949 39.9967 20.0902 40.6721C23.4855 41.3474 27.0047 41.0008 30.203 39.676C33.4013 38.3513 36.1349 36.1079 38.0582 33.2295C39.9814 30.3511 41.008 26.9671 41.008 23.5053C41.0027 18.8648 39.157 14.4159 35.8756 11.1345C32.5943 7.85321 28.1454 6.00745 23.5049 6.00221ZM23.5049 39.7232C20.2973 39.7232 17.1617 38.7721 14.4947 36.99C11.8276 35.208 9.74895 32.6751 8.52145 29.7116C7.29395 26.7482 6.97278 23.4873 7.59856 20.3413C8.22433 17.1954 9.76894 14.3056 12.0371 12.0375C14.3052 9.76937 17.1949 8.22476 20.3409 7.59899C23.4869 6.97321 26.7478 7.29438 29.7112 8.52188C32.6746 9.74938 35.2075 11.8281 36.9896 14.4951C38.7716 17.1621 39.7228 20.2977 39.7228 23.5053C39.7179 27.8051 38.0077 31.9273 34.9673 34.9677C31.9269 38.0081 27.8046 39.7184 23.5049 39.7232Z" fill="#40AC6C"/>
<path d="M46.281 25.5662C46.7529 24.9829 47.0103 24.2554 47.0103 23.5052C47.0103 22.755 46.7529 22.0275 46.281 21.4442L45.228 20.1296C45.0261 19.8774 44.8879 19.5802 44.8251 19.2633C44.7623 18.9463 44.7766 18.619 44.867 18.3088L45.337 16.6964C45.5434 15.9755 45.4995 15.2059 45.2123 14.5131C44.9252 13.8203 44.4118 13.2453 43.7559 12.8817L42.2846 12.0739C42.0011 11.9187 41.7593 11.6975 41.5793 11.4291C41.3994 11.1607 41.2868 10.8529 41.2509 10.5317L41.0673 8.85918C40.9888 8.11271 40.6563 7.41584 40.1256 6.8851C39.5948 6.35435 38.898 6.0219 38.1515 5.94335L36.479 5.75975C36.1578 5.72403 35.85 5.61148 35.5816 5.43162C35.3131 5.25177 35.092 5.0099 34.9368 4.72649L34.129 3.2548C33.771 2.59353 33.1965 2.07549 32.5019 1.7876C31.8072 1.49971 31.0347 1.45949 30.3139 1.67369L28.7019 2.14332C28.3916 2.23351 28.0641 2.24776 27.7471 2.18488C27.43 2.122 27.1328 1.98383 26.8803 1.78201L25.5658 0.728916C24.9824 0.257285 24.2549 0 23.5048 0C22.7546 0 22.0271 0.257285 21.4437 0.728916L20.1292 1.78201C19.8767 1.9834 19.5795 2.12129 19.2627 2.18409C18.9459 2.2469 18.6186 2.23279 18.3083 2.14295L16.696 1.67295C15.9751 1.46642 15.2054 1.51031 14.5126 1.79746C13.8198 2.08461 13.2448 2.59807 12.8813 3.25406L12.0735 4.72538C11.9183 5.00881 11.6971 5.2507 11.4287 5.43061C11.1602 5.61052 10.8525 5.72317 10.5313 5.75902L8.85876 5.94261C8.1123 6.02117 7.41542 6.35362 6.88468 6.88436C6.35393 7.41511 6.02148 8.11198 5.94293 8.85845L5.75933 10.531C5.72361 10.8521 5.61106 11.1599 5.4312 11.4284C5.25135 11.6968 5.00948 11.918 4.72607 12.0732L3.25438 12.881C2.59325 13.2391 2.07534 13.8136 1.78747 14.5082C1.49961 15.2028 1.45929 15.9753 1.67327 16.6961L2.14364 18.3077C2.23382 18.618 2.24808 18.9455 2.1852 19.2625C2.12232 19.5796 1.98414 19.8768 1.78232 20.1293L0.729231 21.4438C0.257408 22.0271 0 22.7546 0 23.5048C0 24.255 0.257408 24.9826 0.729231 25.5658L1.78232 26.8804C1.98418 27.1327 2.12236 27.4298 2.18518 27.7467C2.24801 28.0637 2.23363 28.3911 2.14327 28.7013L1.67327 30.3136C1.46672 31.0345 1.51051 31.8041 1.79752 32.497C2.08452 33.1898 2.5978 33.765 3.25364 34.1287L4.72497 34.9365C5.00839 35.0917 5.25028 35.3129 5.43019 35.5813C5.6101 35.8497 5.72275 36.1575 5.7586 36.4787L5.94219 38.1512C6.02075 38.8977 6.3532 39.5945 6.88394 40.1253C7.41469 40.656 8.11156 40.9885 8.85803 41.067L10.5306 41.2506C10.8517 41.2864 11.1595 41.3989 11.428 41.5788C11.6964 41.7586 11.9176 42.0005 12.0728 42.2839L12.8806 43.7556C13.2385 44.4169 13.813 44.9349 14.5077 45.2228C15.2023 45.5107 15.9749 45.5509 16.6956 45.3367L18.3072 44.8663C18.6176 44.7764 18.9451 44.7623 19.262 44.8252C19.579 44.888 19.8763 45.0261 20.1288 45.2276L21.4434 46.2807C22.0267 46.7526 22.7542 47.01 23.5044 47.01C24.2546 47.01 24.9821 46.7526 25.5654 46.2807L26.88 45.2276C27.1323 45.0259 27.4294 44.8877 27.7463 44.8249C28.0633 44.7621 28.3906 44.7764 28.7008 44.8667L30.3132 45.3367C31.0339 45.5507 31.8063 45.5103 32.5008 45.2224C33.1954 44.9346 33.7698 44.4167 34.1279 43.7556L34.9357 42.2843C35.0909 42.0008 35.3121 41.7589 35.5805 41.579C35.8489 41.3991 36.1567 41.2865 36.4779 41.2506L38.1504 41.067C38.8969 40.9885 39.5938 40.656 40.1245 40.1253C40.6552 39.5945 40.9877 38.8977 41.0662 38.1512L41.2498 36.4787C41.2856 36.1575 41.3981 35.8497 41.578 35.5813C41.7578 35.3128 41.9997 35.0917 42.2831 34.9365L43.7548 34.1287C44.4159 33.7705 44.9338 33.196 45.2217 32.5014C45.5096 31.8068 45.5499 31.0344 45.3359 30.3136L44.8655 28.702C44.7754 28.3916 44.7611 28.0641 44.824 27.7471C44.8869 27.4301 45.025 27.1328 45.2268 26.8804L46.281 25.5662ZM44.2248 26.0777C43.8941 26.4913 43.6676 26.9783 43.5646 27.4977C43.4616 28.0171 43.485 28.5537 43.6329 29.0622L44.1036 30.6738C44.2341 31.1136 44.2094 31.5849 44.0338 32.0087C43.8581 32.4324 43.542 32.7829 43.1387 33.0014L41.6666 33.8092C41.2019 34.0639 40.8054 34.4268 40.5107 34.8673C40.2161 35.3078 40.0319 35.8128 39.9739 36.3395L39.7903 38.012C39.7421 38.4675 39.5391 38.8926 39.2153 39.2164C38.8914 39.5403 38.4663 39.7432 38.0109 39.7914L36.338 39.975C35.8113 40.0333 35.3064 40.2176 34.866 40.5123C34.4257 40.807 34.0628 41.2035 33.8081 41.6681L33.0002 43.1398C32.7816 43.543 32.4312 43.8588 32.0075 44.0345C31.5839 44.2101 31.1128 44.235 30.673 44.1048L29.0611 43.6344C28.5527 43.4863 28.0161 43.4627 27.4967 43.5656C26.9773 43.6686 26.4903 43.8951 26.0769 44.2259L24.7624 45.279C24.4064 45.5671 23.9623 45.7243 23.5044 45.7243C23.0465 45.7243 22.6024 45.5671 22.2464 45.279L20.9319 44.2259C20.5184 43.8952 20.0313 43.6687 19.5119 43.5657C18.9925 43.4627 18.4559 43.4861 17.9474 43.634L16.3362 44.1044C15.8964 44.2345 15.4252 44.2096 15.0015 44.034C14.5779 43.8583 14.2273 43.5425 14.0086 43.1394L13.2008 41.6674C12.9461 41.2027 12.5831 40.8062 12.1427 40.5115C11.7022 40.2169 11.1972 40.0327 10.6705 39.9747L8.99793 39.7911C8.5425 39.7428 8.11738 39.5399 7.79355 39.216C7.46971 38.8922 7.26675 38.4671 7.21854 38.0117L7.03494 36.3388C6.97667 35.8121 6.79238 35.3072 6.49767 34.8668C6.20296 34.4265 5.8065 34.0635 5.34184 33.8088L3.87015 33.001C3.47001 32.7792 3.15681 32.4284 2.98163 32.0058C2.80645 31.5831 2.77964 31.1136 2.90555 30.6738L3.37592 29.0618C3.52393 28.5535 3.54745 28.0169 3.4445 27.4975C3.34154 26.9782 3.11513 26.4912 2.78438 26.0777L1.73055 24.7632C1.44259 24.4071 1.2855 23.9631 1.2855 23.5052C1.2855 23.0473 1.44259 22.6032 1.73055 22.2472L2.78364 20.9327C3.11438 20.5191 3.34081 20.0321 3.44382 19.5127C3.54684 18.9932 3.52342 18.4567 3.37555 17.9482L2.90555 16.3366C2.77507 15.8968 2.79973 15.4255 2.97542 15.0017C3.15111 14.578 3.46713 14.2275 3.87052 14.009L5.34257 13.2012C5.80729 12.9465 6.20377 12.5835 6.49843 12.1431C6.79309 11.7026 6.97725 11.1976 7.03531 10.6709L7.2189 8.99835C7.26746 8.54272 7.47089 8.11756 7.79523 7.79389C8.11956 7.47023 8.54514 7.26767 9.00086 7.22006L10.6738 7.03646C11.2004 6.97819 11.7053 6.7939 12.1457 6.49919C12.5861 6.20448 12.949 5.80802 13.2037 5.34336L14.0115 3.87167C14.2332 3.47205 14.5836 3.15915 15.0056 2.98383C15.4276 2.8085 15.8966 2.78107 16.3362 2.90597L17.9481 3.37634C18.4565 3.52441 18.993 3.54797 19.5124 3.44501C20.0318 3.34205 20.5188 3.11561 20.9323 2.7848L22.2468 1.73097C22.6028 1.44295 23.0468 1.28581 23.5048 1.28581C23.9627 1.28581 24.4068 1.44295 24.7628 1.73097L26.0773 2.78406C26.4909 3.11461 26.978 3.34091 27.4974 3.44392C28.0168 3.54693 28.5533 3.52363 29.0618 3.37597L30.6734 2.90597C31.1132 2.77598 31.5843 2.80088 32.008 2.97652C32.4316 3.15216 32.7821 3.46789 33.001 3.87094L33.8088 5.34299C34.0635 5.80771 34.4264 6.20419 34.8669 6.49885C35.3073 6.79351 35.8123 6.97767 36.3391 7.03573L38.0116 7.21932C38.467 7.26753 38.8922 7.4705 39.216 7.79433C39.5398 8.11817 39.7428 8.54328 39.791 8.99871L39.9746 10.6716C40.0329 11.1983 40.2172 11.7032 40.5119 12.1436C40.8066 12.5839 41.203 12.9468 41.6677 13.2015L43.1394 14.0094C43.5396 14.2311 43.8528 14.5819 44.028 15.0046C44.2033 15.4272 44.2302 15.8967 44.1044 16.3366L43.634 17.9485C43.486 18.4569 43.4625 18.9935 43.5654 19.5128C43.6684 20.0322 43.8948 20.5192 44.2255 20.9327L45.2786 22.2472C45.5666 22.6032 45.7237 23.0473 45.7237 23.5052C45.7237 23.9631 45.5666 24.4071 45.2786 24.7632L44.2248 26.0777Z" fill="#40AC6C"/>
</svg>
