<svg width="536" height="520" viewBox="0 0 536 520" fill="none" xmlns="http://www.w3.org/2000/svg">
<g opacity="0.15" filter="url(#filter0_f_1702_8075)">
<ellipse cx="268.169" cy="260.226" rx="123.069" ry="111.737" transform="rotate(23.2353 268.169 260.226)" fill="#D9D9D9"/>
</g>
<path fill-rule="evenodd" clip-rule="evenodd" d="M315.305 87.3802C375.931 101.856 431.378 138.484 456.262 195.702C482.049 254.994 484.773 330.774 442.425 379.672C404.348 423.639 336.089 396.578 278.192 401.315C229.669 405.284 180.789 430.105 139.412 404.46C88.8902 373.148 47.1176 319.558 50.3718 260.115C53.6651 199.958 104.345 156.601 154.781 123.717C203.161 92.1733 259.187 73.981 315.305 87.3802Z" stroke="#2B2A2A"/>
<path fill-rule="evenodd" clip-rule="evenodd" d="M307.47 118.406C358.039 130.519 404.354 160.894 425.256 208.168C446.915 257.157 449.399 319.682 414.243 359.903C382.632 396.068 325.665 373.551 277.424 377.295C236.994 380.433 196.325 400.772 161.767 379.499C119.572 353.523 84.6051 309.194 87.1496 260.164C89.7246 210.543 131.841 174.917 173.785 147.93C214.018 122.044 260.661 107.193 307.47 118.406Z" stroke="#2B2A2A"/>
<path fill-rule="evenodd" clip-rule="evenodd" d="M300.354 145.15C340.194 154.63 376.574 178.848 392.805 216.828C409.624 256.184 411.236 306.556 383.268 339.164C358.121 368.483 313.291 350.655 275.201 353.941C243.278 356.695 211.072 373.312 183.919 356.361C150.765 335.664 123.419 300.137 125.7 260.612C128.008 220.611 161.443 191.668 194.693 169.687C226.587 148.602 263.478 136.375 300.354 145.15Z" stroke="#2B2A2A"/>
<path fill-rule="evenodd" clip-rule="evenodd" d="M287.81 200.161C312.22 205.986 334.539 220.749 344.546 243.823C354.917 267.735 355.996 298.302 338.932 318.036C323.589 335.78 296.108 324.88 272.793 326.804C253.252 328.416 233.563 338.44 216.907 328.105C196.57 315.486 179.761 293.878 181.085 269.9C182.425 245.633 202.843 228.132 223.161 214.856C242.65 202.12 265.215 194.769 287.81 200.161Z" stroke="#2B2A2A"/>
<defs>
<filter id="filter0_f_1702_8075" x="0.761719" y="0.624207" width="534.814" height="519.203" filterUnits="userSpaceOnUse" color-interpolation-filters="sRGB">
<feFlood flood-opacity="0" result="BackgroundImageFix"/>
<feBlend mode="normal" in="SourceGraphic" in2="BackgroundImageFix" result="shape"/>
<feGaussianBlur stdDeviation="73" result="effect1_foregroundBlur_1702_8075"/>
</filter>
</defs>
</svg>
