<svg width="51" height="83" fill="none" xmlns="http://www.w3.org/2000/svg"><path d="M12.75 76.615a6.392 6.392 0 0 0 3.935 5.899 6.366 6.366 0 0 0 6.948-1.384 6.387 6.387 0 0 0 1.382-6.958 6.368 6.368 0 0 0-10.398-2.071 6.39 6.39 0 0 0-1.867 4.514zm9.563 0a3.195 3.195 0 0 1-1.968 2.95 3.184 3.184 0 0 1-4.346-2.327 3.197 3.197 0 0 1 1.355-3.277 3.184 3.184 0 0 1 4.025.397c.598.599.933 1.41.933 2.257zm15.937-9.577c2.522 0 4.987-.748 7.084-2.151a12.766 12.766 0 0 0 4.695-5.731 12.787 12.787 0 0 0-2.763-13.916 12.732 12.732 0 0 0-13.895-2.768 12.753 12.753 0 0 0-5.722 4.703 12.783 12.783 0 0 0 1.585 16.123 12.74 12.74 0 0 0 9.016 3.74zm0-22.346c1.891 0 3.74.562 5.313 1.614a9.59 9.59 0 0 1 1.45 14.735 9.557 9.557 0 0 1-10.422 2.076 9.566 9.566 0 0 1-4.292-3.527 9.587 9.587 0 0 1 1.19-12.093 9.555 9.555 0 0 1 6.761-2.805z" fill="#40AC6C"/><path d="M38.25 49.48c1.268 0 2.484.505 3.38 1.403a4.792 4.792 0 0 1 1.401 3.386 1.598 1.598 0 0 0 1.594 1.596 1.592 1.592 0 0 0 1.594-1.596 7.99 7.99 0 0 0-2.334-5.643 7.963 7.963 0 0 0-5.635-2.337 1.592 1.592 0 0 0-1.594 1.596 1.598 1.598 0 0 0 1.594 1.596zm0-30.326c0-3.788-1.122-7.492-3.223-10.641a19.131 19.131 0 0 0-8.583-7.055A19.098 19.098 0 0 0 5.602 5.61a19.18 19.18 0 0 0-4.146 20.874A19.148 19.148 0 0 0 8.5 35.08a19.105 19.105 0 0 0 24.148-2.382 19.168 19.168 0 0 0 5.602-13.544zM19.125 35.115a15.92 15.92 0 0 1-8.854-2.69 15.957 15.957 0 0 1-5.87-7.163A15.984 15.984 0 0 1 7.855 7.867a15.915 15.915 0 0 1 17.369-3.46 15.942 15.942 0 0 1 7.152 5.88 15.978 15.978 0 0 1-1.981 20.153 15.938 15.938 0 0 1-11.27 4.675z" fill="#40AC6C"/><path d="M17.531 6.385a11.148 11.148 0 0 0-7.888 3.272 11.182 11.182 0 0 0-3.268 7.9 1.597 1.597 0 0 0 1.594 1.597 1.592 1.592 0 0 0 1.594-1.596c0-2.117.84-4.147 2.333-5.644a7.963 7.963 0 0 1 5.635-2.337 1.593 1.593 0 0 0 1.594-1.596 1.597 1.597 0 0 0-1.594-1.596z" fill="#40AC6C"/></svg>