<svg width="456" height="472" fill="none" xmlns="http://www.w3.org/2000/svg"><path opacity=".2" d="M219.719 155.421c1.878-2.805 4.944-4.429 8.306-4.429 3.263 0 6.378 1.624 8.207 4.33.247.345.494.788.692 1.231L343.915 341H385L243.698 97.301C240.583 91.543 234.551 88 228.025 88c-6.329 0-12.212 3.396-15.426 8.858l-.544.886L71 340.951h41.085l107.09-184.595c.148-.345.346-.64.544-.935z" fill="#539266"/><path opacity=".2" d="M448.652 326.819L289.728 51.649h.049l-13.918-24.073C266.037 10.556 247.677 0 228.034 0c-19.644 0-37.954 10.557-47.825 27.576l-5.43 9.422L7.366 326.82c-9.821 17.019-9.821 38.182 0 55.152 9.822 17.019 28.133 27.576 47.776 27.576l44.963.049 2.517-.049h88.445c10.611.444 18.903 9.077 18.903 19.634V472h35.536v-42.819c0-30.438-24.777-55.202-55.229-55.202H54.797c-6.86-.148-13.227-3.946-16.633-9.817a19.74 19.74 0 0 1 0-19.683l173.04-299.538c3.553-5.87 10.019-9.521 16.879-9.521 6.861 0 13.326 3.65 16.88 9.52l172.99 299.49a19.742 19.742 0 0 1 0 19.683c-3.405 5.87-9.772 9.669-16.583 9.817h-60.806c-7.008 0-13.573-3.799-17.077-9.866l-79.758-138.128a17.758 17.758 0 0 0-15.646-9.323c-6.317 0-12.191 3.404-15.399 8.879l-.543.888-66.777 115.583h41.014l32.821-56.632c.148-.345.346-.641.543-.937 1.876-2.812 4.936-4.44 8.292-4.44 3.257 0 6.367 1.628 8.193 4.341.247.345.493.789.691 1.233l55.722 96.492c9.822 17.019 28.132 27.576 47.776 27.576h12.043l-.05.049h48.319c19.644 0 37.954-10.606 47.776-27.576 9.97-17.068 9.97-38.231.148-55.25z" fill="#539266"/></svg>