<svg width="167" height="50" fill="none" xmlns="http://www.w3.org/2000/svg"><rect width="167" height="50" rx="5" fill="#201D24"/><path d="M113.457 23.876v3.222h-1.999v2.113h1.999v7.179c0 2.451 1.097 3.431 3.858 3.431a7.94 7.94 0 0 0 1.352-.128v-2.09c-.347.036-.566.059-.947.059-1.236 0-1.779-.584-1.779-1.914V29.21h2.726v-2.113h-2.726v-3.222h-2.484zM125.7 39.997c3.674 0 5.926-2.487 5.926-6.607 0-4.098-2.264-6.596-5.926-6.596-3.673 0-5.938 2.498-5.938 6.596 0 4.12 2.253 6.607 5.938 6.607zm0-2.23c-2.16 0-3.373-1.6-3.373-4.377 0-2.755 1.213-4.366 3.373-4.366 2.149 0 3.373 1.61 3.373 4.366 0 2.766-1.224 4.377-3.373 4.377zm7.854 1.985h2.483v-7.506c0-1.786 1.329-2.989 3.212-2.989.439 0 1.178.082 1.386.152v-2.474c-.266-.07-.739-.105-1.109-.105-1.64 0-3.038.91-3.396 2.159h-.185v-1.95h-2.391v12.712zm13.248-10.822c1.837 0 3.038 1.296 3.096 3.292h-6.354c.139-1.984 1.421-3.291 3.258-3.291zm3.084 7.39c-.462.992-1.49 1.54-2.992 1.54-1.987 0-3.269-1.412-3.35-3.642v-.14h8.884v-.875c0-3.992-2.114-6.409-5.615-6.409-3.546 0-5.799 2.58-5.799 6.642 0 4.063 2.207 6.56 5.811 6.56 2.876 0 4.886-1.4 5.452-3.676h-2.391zM97.17 35.057c.191 3.122 2.765 5.118 6.597 5.118 4.095 0 6.657-2.093 6.657-5.432 0-2.626-1.461-4.078-5.005-4.912l-1.904-.472c-2.251-.533-3.161-1.246-3.161-2.493 0-1.572 1.413-2.6 3.532-2.6 2.012 0 3.401 1.003 3.652 2.613h2.61c-.155-2.94-2.717-5.01-6.226-5.01-3.771 0-6.286 2.07-6.286 5.179 0 2.565 1.425 4.09 4.55 4.827l2.227.545c2.287.544 3.293 1.343 3.293 2.673 0 1.55-1.581 2.674-3.736 2.674-2.311 0-3.915-1.052-4.142-2.71h-2.659zM71.441 26.83c-1.71 0-3.188.863-3.95 2.31h-.185v-2.1h-2.392v16.937h2.484v-6.151h.197c.658 1.342 2.079 2.136 3.87 2.136 3.176 0 5.198-2.533 5.198-6.572 0-4.04-2.022-6.56-5.222-6.56zm-.704 10.879c-2.08 0-3.385-1.658-3.385-4.308 0-2.661 1.305-4.319 3.396-4.319 2.103 0 3.362 1.623 3.362 4.308 0 2.696-1.26 4.319-3.373 4.319zM85.353 26.83c-1.71 0-3.188.863-3.95 2.31h-.185v-2.1h-2.391v16.937h2.483v-6.151h.197c.658 1.342 2.079 2.136 3.87 2.136 3.176 0 5.198-2.533 5.198-6.572 0-4.04-2.022-6.56-5.222-6.56zm-.704 10.879c-2.08 0-3.385-1.658-3.385-4.308 0-2.661 1.306-4.319 3.396-4.319 2.103 0 3.362 1.623 3.362 4.308 0 2.696-1.26 4.319-3.373 4.319zm-24.191 2.043h2.85L57.07 22.293h-2.886l-6.238 17.459H50.7l1.593-4.634h6.585l1.58 4.633zm-4.969-14.29h.204l2.502 7.381h-5.22l2.514-7.38zM49.614 9.125v8.422h3.01c2.483 0 3.921-1.547 3.921-4.238 0-2.65-1.45-4.184-3.922-4.184h-3.009zm1.294 1.19h1.571c1.727 0 2.75 1.11 2.75 3.012 0 1.932-1.005 3.03-2.75 3.03h-1.57v-6.042zM60.95 17.67c1.837 0 2.963-1.244 2.963-3.304 0-2.049-1.132-3.298-2.963-3.298-1.837 0-2.969 1.25-2.969 3.298 0 2.06 1.127 3.303 2.97 3.303zm0-1.115c-1.08 0-1.686-.8-1.686-2.19 0-1.377.606-2.182 1.686-2.182 1.075 0 1.687.806 1.687 2.183 0 1.383-.612 2.189-1.687 2.189zm12.555-5.365h-1.242l-1.12 4.851h-.099l-1.294-4.85h-1.19l-1.293 4.85h-.093l-1.126-4.85h-1.26l1.734 6.356h1.276l1.294-4.681h.098l1.3 4.68h1.288l1.727-6.355zm1.43 6.357h1.242v-3.718c0-.992.583-1.61 1.501-1.61.919 0 1.358.507 1.358 1.528v3.8h1.242v-4.115c0-1.512-.774-2.364-2.178-2.364-.947 0-1.57.426-1.877 1.133h-.093v-1.01h-1.195v6.356zm7.298 0h1.242V8.71h-1.242v8.837zm5.913.123c1.836 0 2.963-1.244 2.963-3.304 0-2.049-1.132-3.298-2.963-3.298-1.837 0-2.97 1.25-2.97 3.298 0 2.06 1.127 3.303 2.97 3.303zm0-1.115c-1.08 0-1.687-.8-1.687-2.19 0-1.377.607-2.182 1.687-2.182 1.074 0 1.686.806 1.686 2.183 0 1.383-.612 2.189-1.686 2.189zm6.663.04c-.676 0-1.167-.332-1.167-.904 0-.56.393-.858 1.26-.917l1.536-.099v.531c0 .788-.694 1.39-1.63 1.39zm-.318 1.057c.826 0 1.513-.362 1.889-.998h.098v.893h1.196v-4.343c0-1.342-.89-2.136-2.467-2.136-1.426 0-2.443.7-2.57 1.792h1.201c.14-.45.619-.706 1.312-.706.849 0 1.288.38 1.288 1.05v.55l-1.704.098c-1.496.094-2.34.753-2.34 1.897 0 1.162.884 1.903 2.097 1.903zm7.397 0c.866 0 1.6-.415 1.975-1.11h.098v1.005h1.19V8.71h-1.242v3.49h-.092c-.341-.7-1.069-1.114-1.929-1.114-1.589 0-2.61 1.272-2.61 3.28 0 2.014 1.01 3.286 2.61 3.286zm.352-5.44c1.04 0 1.693.835 1.693 2.16 0 1.33-.647 2.153-1.693 2.153-1.051 0-1.681-.81-1.681-2.16 0-1.336.636-2.153 1.681-2.153zm10.964 5.458c1.837 0 2.963-1.244 2.963-3.304 0-2.049-1.132-3.298-2.963-3.298-1.837 0-2.969 1.25-2.969 3.298 0 2.06 1.127 3.303 2.969 3.303zm0-1.115c-1.08 0-1.686-.8-1.686-2.19 0-1.377.606-2.182 1.686-2.182 1.074 0 1.687.806 1.687 2.183 0 1.383-.613 2.189-1.687 2.189zm4.607.992h1.242v-3.718c0-.992.583-1.61 1.502-1.61.918 0 1.357.507 1.357 1.528v3.8h1.242v-4.115c0-1.512-.774-2.364-2.178-2.364-.947 0-1.571.426-1.877 1.133h-.092v-1.01h-1.196v6.356zm11.062-7.937v1.61h-.999v1.056h.999v3.59c0 1.226.549 1.716 1.929 1.716.243 0 .474-.03.676-.064v-1.045c-.173.017-.283.029-.474.029-.618 0-.889-.292-.889-.957v-3.269h1.363V11.22h-1.363V9.61h-1.242zm4.272 7.937h1.242v-3.712c0-.963.566-1.611 1.582-1.611.878 0 1.346.514 1.346 1.53v3.793h1.242v-4.103c0-1.512-.826-2.37-2.166-2.37-.947 0-1.611.426-1.917 1.138h-.099V8.71h-1.23v8.837zm9.892-5.411c.918 0 1.519.648 1.548 1.646h-3.177c.069-.992.711-1.646 1.629-1.646zm1.542 3.695c-.231.496-.745.77-1.496.77-.993 0-1.634-.706-1.675-1.82v-.07h4.442v-.438c0-1.997-1.057-3.205-2.807-3.205-1.773 0-2.9 1.29-2.9 3.321s1.103 3.28 2.905 3.28c1.439 0 2.444-.7 2.727-1.838h-1.196zM34.47 25.423c.03-2.364 1.286-4.6 3.28-5.839-1.258-1.814-3.364-2.965-5.555-3.034-2.337-.248-4.602 1.413-5.793 1.413-1.214 0-3.048-1.388-5.022-1.347-2.574.084-4.973 1.562-6.225 3.836-2.691 4.708-.684 11.629 1.894 15.435 1.29 1.864 2.798 3.946 4.77 3.872 1.93-.081 2.652-1.244 4.982-1.244 2.308 0 2.985 1.244 4.997 1.197 2.072-.034 3.377-1.872 4.621-3.754a15.481 15.481 0 0 0 2.114-4.349c-2.435-1.04-4.06-3.515-4.063-6.186zm-3.802-11.376a6.9 6.9 0 0 0 1.551-4.909 6.876 6.876 0 0 0-4.463 2.334 6.623 6.623 0 0 0-1.592 4.727 5.749 5.749 0 0 0 4.504-2.152z" fill="#EFEFEF"/></svg>