<svg width="77" height="77" fill="none" xmlns="http://www.w3.org/2000/svg"><path d="M75.716 19.25h-2.861c-.6 0-1.12.415-1.252.998a10.16 10.16 0 0 1-1.318 3.174 1.283 1.283 0 0 0 .179 1.591l1.119 1.12-1.816 1.815-1.12-1.119a1.285 1.285 0 0 0-1.59-.178 10.158 10.158 0 0 1-3.174 1.318c-.585.133-1 .653-1 1.252V30.8h-1.657a29.718 29.718 0 0 0-12.46-13.081v-1.036h1.579c.6 0 1.119-.414 1.251-.998a10.16 10.16 0 0 1 1.318-3.174 1.283 1.283 0 0 0-.178-1.591l-1.12-1.12 1.817-1.815 1.119 1.119a1.28 1.28 0 0 0 1.591.178c.983-.62 2.05-1.062 3.174-1.318.585-.133 1-.653 1-1.252V5.133h2.566v1.579c0 .6.415 1.119.998 1.251 1.123.255 2.191.698 3.174 1.318.508.32 1.17.245 1.591-.178l1.12-1.12L71.582 9.8l-1.12 1.119a1.283 1.283 0 0 0-.178 1.59 10.16 10.16 0 0 1 1.318 3.175c.133.585.653 1 1.252 1h2.862a1.284 1.284 0 0 0 0-2.567h-1.881a12.761 12.761 0 0 0-.862-2.078l1.332-1.332a1.282 1.282 0 0 0 0-1.815l-3.63-3.63a1.282 1.282 0 0 0-1.816 0l-1.332 1.332a12.755 12.755 0 0 0-2.077-.863V3.85c0-.708-.575-1.283-1.284-1.283h-5.133c-.708 0-1.283.575-1.283 1.283v1.881a12.81 12.81 0 0 0-2.078.863L54.34 5.262a1.282 1.282 0 0 0-1.815 0l-3.63 3.63a1.282 1.282 0 0 0 0 1.815l1.332 1.332c-.35.667-.638 1.362-.862 2.078h-1.882c-.708 0-1.283.575-1.283 1.283v1.073a29.345 29.345 0 0 0-11.55-2.356 29.325 29.325 0 0 0-14.233 3.669l-1.179-2.042a1.282 1.282 0 0 0-1.753-.47l-.755.437a8.942 8.942 0 0 0-1.25-.72v-.874c0-.709-.575-1.284-1.284-1.284H9.063c-.709 0-1.283.575-1.283 1.284v.874a8.85 8.85 0 0 0-1.25.72l-.755-.437a1.282 1.282 0 0 0-1.753.47l-2.567 4.445a1.284 1.284 0 0 0 .47 1.753l.752.436a8.547 8.547 0 0 0 0 1.445l-.752.435a1.283 1.283 0 0 0-.47 1.753l2.567 4.445a1.283 1.283 0 0 0 1.753.47l.756-.437c.396.274.812.514 1.249.72v.233a29.335 29.335 0 0 0-2.647 12.191c0 3.302.544 6.541 1.621 9.646l-2.433 1.227a1.284 1.284 0 0 0 .176 2.364l10.968 3.617a1.285 1.285 0 0 0 1.62-.817l3.62-10.97a1.284 1.284 0 0 0-1.797-1.547l-2.844 1.433a18.96 18.96 0 0 1-.663-4.954c0-2.55.495-5.034 1.473-7.384a1.284 1.284 0 0 0-2.37-.987 21.7 21.7 0 0 0-1.67 8.371c0 2.43.419 4.854 1.242 7.206a1.284 1.284 0 0 0 1.79.723l1.43-.721-2.245 6.808-6.807-2.246.689-.348c.59-.298.859-.997.617-1.613a26.82 26.82 0 0 1-1.85-9.808c0-14.86 12.089-26.95 26.95-26.95 14.86 0 26.95 12.09 26.95 26.95 0 2.616-.379 5.212-1.127 7.717a1.283 1.283 0 0 0 2.459.734 29.539 29.539 0 0 0-.61-18.717h1.844c.709 0 1.284-.575 1.284-1.284v-1.881c.716-.226 1.41-.513 2.077-.862l1.332 1.332a1.282 1.282 0 0 0 1.815 0l3.63-3.63a1.282 1.282 0 0 0 0-1.816l-1.331-1.332a12.67 12.67 0 0 0 .862-2.077h1.881a1.284 1.284 0 0 0 0-2.567zm-65.37 3.85c0-.707.576-1.283 1.284-1.283.707 0 1.283.576 1.283 1.283s-.576 1.283-1.284 1.283a1.285 1.285 0 0 1-1.283-1.283zm4.784-1.581a3.847 3.847 0 0 0-3.5-2.269 3.855 3.855 0 0 0-3.85 3.85c0 1.713 1.131 3.15 2.68 3.648-.496.71-.962 1.444-1.397 2.198a6.398 6.398 0 0 1-1.6-.972 1.278 1.278 0 0 0-1.474-.136l-.386.223L4.32 25.84l.386-.224c.47-.27.719-.81.62-1.343a6.431 6.431 0 0 1-.113-1.172c0-.376.037-.76.113-1.172a1.283 1.283 0 0 0-.62-1.343l-.386-.224 1.283-2.222.386.223a1.28 1.28 0 0 0 1.475-.136 6.387 6.387 0 0 1 2.026-1.168c.512-.182.856-.666.856-1.21V15.4h2.567v.448c0 .544.342 1.028.856 1.21.748.264 1.43.657 2.027 1.168a1.284 1.284 0 0 0 1.475.136l.386-.223.569.984a29.504 29.504 0 0 0-3.096 2.396z" fill="#40AC6C"/><path d="M61.6 11.55a6.424 6.424 0 0 0-6.417 6.417 6.424 6.424 0 0 0 6.417 6.416 6.424 6.424 0 0 0 6.416-6.416A6.424 6.424 0 0 0 61.6 11.55zm0 10.267a3.855 3.855 0 0 1-3.85-3.85 3.855 3.855 0 0 1 3.85-3.85 3.855 3.855 0 0 1 3.85 3.85 3.855 3.855 0 0 1-3.85 3.85zm-20.378 21.44a1.282 1.282 0 0 0 1.814 0l5.886-5.885a1.282 1.282 0 0 0 0-1.815l-3.63-3.629a1.282 1.282 0 0 0-1.814 0L32.3 43.105l-4.994-5.828a1.281 1.281 0 0 0-1.811-.139l-3.898 3.342c-.537.46-.6 1.272-.138 1.81l7.7 8.983a3.855 3.855 0 0 0 5.645.216l4.602-4.602a1.282 1.282 0 1 0-1.814-1.815l-4.603 4.602a1.317 1.317 0 0 1-.952.376h-.004a1.286 1.286 0 0 1-.925-.448l-6.864-8.01 1.949-1.67 5.06 5.905c.232.27.567.433.925.446.364.02.705-.122.958-.375L44.385 34.65l1.815 1.815-4.978 4.978a1.282 1.282 0 0 0 0 1.814zM1.283 8.983H7.7c.708 0 1.283-.575 1.283-1.283V1.283C8.983.575 8.408 0 7.7 0H1.283C.575 0 0 .575 0 1.283V7.7c0 .708.575 1.283 1.283 1.283zm1.284-6.416h3.85v3.85h-3.85v-3.85zm17.966 6.416h6.417c.708 0 1.283-.575 1.283-1.283V1.283C28.233.575 27.658 0 26.95 0h-6.417c-.708 0-1.283.575-1.283 1.283V7.7c0 .708.575 1.283 1.283 1.283zm1.284-6.416h3.85v3.85h-3.85v-3.85zm-10.01 4.62a1.281 1.281 0 0 0 1.796.256l2.567-1.925a1.282 1.282 0 0 0 0-2.053L13.603 1.54a1.284 1.284 0 0 0-1.54 2.053l1.199.899-1.199.898a1.283 1.283 0 0 0-.256 1.797zm27.976 1.796H46.2c.708 0 1.283-.575 1.283-1.283V1.283C47.483.575 46.908 0 46.2 0h-6.417C39.075 0 38.5.575 38.5 1.283V7.7c0 .708.575 1.283 1.283 1.283zm1.283-6.416h3.85v3.85h-3.85v-3.85zm-10.01 4.62a1.281 1.281 0 0 0 1.797.256l2.567-1.925a1.282 1.282 0 0 0 0-2.053L32.853 1.54a1.284 1.284 0 0 0-1.54 2.053l1.199.899-1.199.898a1.284 1.284 0 0 0-.256 1.797z" fill="#40AC6C"/><path d="M68.924 59.41a1.279 1.279 0 0 0-1.4-.28 1.285 1.285 0 0 0-.79 1.187v2.566h-9.725a29.834 29.834 0 0 0 3.917-5.808 1.284 1.284 0 0 0-2.284-1.17c-4.64 9.053-13.835 14.678-23.992 14.678H2.567V65.45H34.65c12.03 0 21.816-9.787 21.816-21.817S46.68 21.817 34.65 21.817c-6.898 0-13.25 3.178-17.421 8.721a1.283 1.283 0 0 0 2.05 1.544c3.684-4.892 9.285-7.699 15.37-7.699 10.615 0 19.25 8.636 19.25 19.25 0 10.615-8.635 19.25-19.25 19.25H1.284c-.708 0-1.283.575-1.283 1.284v7.7c0 .708.575 1.283 1.283 1.283h65.45v2.567A1.286 1.286 0 0 0 68.016 77c.334 0 .663-.13.908-.376l7.7-7.7a1.282 1.282 0 0 0 0-1.815l-7.7-7.7zm.376 13.209v-.752c0-.709-.575-1.284-1.284-1.284H46.711a29.32 29.32 0 0 0 7.82-5.133h13.485c.709 0 1.284-.575 1.284-1.283v-.752l4.602 4.602-4.602 4.602z" fill="#40AC6C"/></svg>