<svg width="96" height="96" fill="none" xmlns="http://www.w3.org/2000/svg"><path d="M39.39 39.785v-5.621a5.554 5.554 0 0 0-1.627-3.927l-2.708-2.708M56.61 39.785v-5.621c0-1.473.586-2.885 1.627-3.927l2.708-2.708M48 39.99V25.786m-34.78-.639c1.438.089 2.798.465 4.023 1.072m-4.024-1.072v.003a11.13 11.13 0 0 0-.657-.022C6.73 25.128 2 29.855 2 35.688c0 5.835 4.73 10.563 10.562 10.563h8.845m-8.188-21.103v-.02c0-3.029.882-5.852 2.401-8.227m68.345 8.226c0 2.149-.641 4.147-1.743 5.815m1.743-5.815c0-5.832-4.73-10.562-10.562-10.562-.83 0-1.635.098-2.409.28a10.39 10.39 0 0 0-9.396-5.951c-1.464 0-2.856.303-4.118.85m26.485 15.383v.014C89.554 25.415 94 30.033 94 35.688c0 5.835-4.73 10.563-10.562 10.563h-8.882M29.072 15.069c.261-1.806.839-3.51 1.674-5.054m0 0a15.519 15.519 0 0 0-2.25-.166c-3.063 0-5.915.901-8.307 2.458m10.557-2.292C33.33 5.243 38.382 2 44.19 2c5.698 0 10.663 3.121 13.29 7.743m0 0l.87 2.045a14.357 14.357 0 0 1 1.146 5.49m-46.26 71.079v-28.52h3.06l-5.717-7.946-5.717 7.946h3.06v28.52M82.763 51.89v28.52h-3.06l5.718 7.946 5.717-7.947h-3.06V51.89M33.16 40.284h38.138a2.853 2.853 0 0 1 2.853 2.852v8.85a2.853 2.853 0 0 1-2.853 2.853H24.702a2.853 2.853 0 0 1-2.853-2.853v-8.85a2.853 2.853 0 0 1 2.853-2.852h1.979M21.849 89.96v1.186A2.853 2.853 0 0 0 24.702 94h46.596a2.853 2.853 0 0 0 2.853-2.853v-8.852a2.853 2.853 0 0 0-2.853-2.852H24.702a2.853 2.853 0 0 0-2.853 2.853v1.186m48.386-28.315v4.37m-44.47 0V55.29m44.47 19.594v4.25m-44.47.152v-4.402M42.89 47.561h2.365m4.767 0h2.365m4.767 0H68.02M42.891 86.72h2.365m4.767 0h2.365m4.767 0H68.02m-6.003-26.857h9.281a2.852 2.852 0 0 1 2.853 2.852v8.85a2.853 2.853 0 0 1-2.853 2.853H24.702a2.853 2.853 0 0 1-2.853-2.853v-8.85a2.852 2.852 0 0 1 2.853-2.852h30.836m-2.43 7.277h-2.364m-4.767 0h-2.365m-4.767 0H27.98m23.722-45.766a3.702 3.702 0 1 1-7.404 0 3.702 3.702 0 0 1 7.404 0zm-16.007 3.907a2.888 2.888 0 1 1-5.775 0 2.888 2.888 0 0 1 5.775 0zm30.385 0a2.888 2.888 0 1 1-5.775 0 2.888 2.888 0 0 1 5.775 0z" stroke="#40AC6C" stroke-width="3" stroke-miterlimit="10" stroke-linecap="round" stroke-linejoin="round"/></svg>