<svg width="79" height="82" fill="none" xmlns="http://www.w3.org/2000/svg"><path fill-rule="evenodd" clip-rule="evenodd" d="M4.891 18.482a2.887 2.887 0 0 0-1.9 3.6l1.19 3.92 19.007-6.191a1.43 1.43 0 0 1 1.788.957 1.443 1.443 0 0 1-.95 1.8L5.018 28.759l14.67 48.316a2.86 2.86 0 0 0 3.576 1.914l28.61-8.806a2.887 2.887 0 0 0 1.9-3.6L47.305 44.75a1.443 1.443 0 0 1 .95-1.8 1.43 1.43 0 0 1 1.788.957l6.47 21.832c.925 3.045-.778 6.268-3.803 7.2l-28.609 8.806c-3.024.932-6.226-.782-7.15-3.828L.25 22.925c-.924-3.046.778-6.27 3.803-7.2l25.132-7.696a1.43 1.43 0 0 1 1.787.957 1.443 1.443 0 0 1-.95 1.8L4.89 18.483z" fill="#fff"/><path fill-rule="evenodd" clip-rule="evenodd" d="M51.64 59.606l-34.078 10.49 2.106 6.936a2.86 2.86 0 0 0 3.576 1.914l28.6-8.804a2.887 2.887 0 0 0 1.901-3.6l-2.106-6.936zm-37.653 8.576l2.943 9.693c.925 3.045 4.126 4.76 7.151 3.828l28.6-8.804c3.025-.931 4.728-4.154 3.803-7.2l-2.943-9.694-39.554 12.177z" fill="#fff"/><path fill-rule="evenodd" clip-rule="evenodd" d="M32.434 69.654a1.443 1.443 0 0 1 .95-1.8l4.108-1.264a1.43 1.43 0 0 1 1.788.957 1.443 1.443 0 0 1-.95 1.8l-4.108 1.264a1.43 1.43 0 0 1-1.788-.957zm-1.179-34.769l-.182 1.386c-.375 2.86-1.028 6.116-1.677 8.816 2.847-.951 5.925-2.452 9.022-4.482l1.144-.75 1.298.422c3.024.982 6.355 1.53 9.863 1.53 14.72 0 25.413-9.325 25.413-19.462S65.444 2.883 50.724 2.883c-14.721 0-25.414 9.325-25.414 19.462 0 4.233 1.785 8.233 4.978 11.538l.968 1.002zm-3.02 1.008c-3.632-3.758-5.79-8.454-5.79-13.548C22.445 10.005 35.105 0 50.723 0 66.34 0 79 10.004 79 22.345c0 12.34-12.66 22.345-28.277 22.345-3.803 0-7.43-.593-10.742-1.669-4.21 2.76-8.47 4.65-12.324 5.557-1.053.248-1.925-.81-1.636-1.86.787-2.86 1.738-7.2 2.213-10.825z" fill="#fff"/><path fill-rule="evenodd" clip-rule="evenodd" d="M35.69 16.578c0-.796.64-1.441 1.431-1.441h25.056c.79 0 1.432.645 1.432 1.441 0 .797-.641 1.442-1.432 1.442H37.12c-.79 0-1.432-.645-1.432-1.442zm0 7.209c0-.797.64-1.442 1.431-1.442h25.056c.79 0 1.432.645 1.432 1.442 0 .796-.641 1.441-1.432 1.441H37.12c-.79 0-1.432-.645-1.432-1.442zm0 6.487c0-.796.64-1.442 1.431-1.442h13.602c.79 0 1.431.646 1.431 1.442 0 .796-.64 1.441-1.431 1.441H37.12c-.79 0-1.432-.645-1.432-1.441z" fill="#fff"/></svg>