<svg width="51" height="83" viewBox="0 0 51 83" fill="none" xmlns="http://www.w3.org/2000/svg">
<path d="M12.75 76.6154C12.75 77.8781 13.1239 79.1125 13.8244 80.1625C14.5249 81.2124 15.5205 82.0308 16.6854 82.514C17.8503 82.9972 19.1321 83.1237 20.3687 82.8773C21.6053 82.631 22.7412 82.0229 23.6328 81.13C24.5244 80.2371 25.1315 79.0995 25.3775 77.861C25.6235 76.6225 25.4972 75.3387 25.0147 74.1721C24.5322 73.0055 23.7151 72.0083 22.6668 71.3068C21.6184 70.6052 20.3859 70.2308 19.125 70.2308C17.4342 70.2308 15.8127 70.9034 14.6172 72.1008C13.4217 73.2981 12.75 74.9221 12.75 76.6154ZM22.3125 76.6154C22.3125 77.2468 22.1256 77.864 21.7753 78.3889C21.4251 78.9139 20.9272 79.3231 20.3448 79.5647C19.7624 79.8063 19.1215 79.8695 18.5032 79.7464C17.8848 79.6232 17.3169 79.3191 16.8711 78.8727C16.4253 78.4262 16.1217 77.8574 15.9988 77.2382C15.8758 76.6189 15.9389 75.9771 16.1801 75.3937C16.4214 74.8104 16.8299 74.3119 17.3541 73.9611C17.8783 73.6103 18.4946 73.4231 19.125 73.4231C19.9704 73.4231 20.7811 73.7594 21.3789 74.3581C21.9767 74.9568 22.3125 75.7687 22.3125 76.6154Z" fill="#40AC6C"/>
<path d="M38.25 67.0385C40.7717 67.0385 43.2368 66.2896 45.3335 64.8865C47.4302 63.4834 49.0644 61.4891 50.0295 59.1558C50.9945 56.8225 51.247 54.2551 50.755 51.7781C50.263 49.3011 49.0487 47.0258 47.2656 45.24C45.4825 43.4542 43.2107 42.2381 40.7374 41.7454C38.2641 41.2527 35.7005 41.5055 33.3708 42.472C31.041 43.4385 29.0497 45.0751 27.6488 47.175C26.2478 49.2749 25.5 51.7437 25.5 54.2692C25.5 57.6558 26.8433 60.9037 29.2344 63.2984C31.6255 65.6931 34.8685 67.0385 38.25 67.0385ZM38.25 44.6923C40.1413 44.6923 41.9901 45.254 43.5626 46.3063C45.1352 47.3586 46.3608 48.8543 47.0846 50.6043C47.8084 52.3543 47.9977 54.2799 47.6288 56.1376C47.2598 57.9953 46.349 59.7018 45.0117 61.0411C43.6744 62.3805 41.9705 63.2926 40.1155 63.6621C38.2606 64.0317 36.3379 63.842 34.5906 63.1172C32.8433 62.3923 31.3498 61.1648 30.2991 59.5899C29.2483 58.015 28.6875 56.1634 28.6875 54.2692C28.6875 51.7293 29.695 49.2933 31.4883 47.4973C33.2816 45.7013 35.7139 44.6923 38.25 44.6923Z" fill="#40AC6C"/>
<path d="M38.25 49.4808C39.5181 49.4808 40.7342 49.9853 41.6308 50.8833C42.5275 51.7813 43.0312 52.9992 43.0312 54.2692C43.0312 54.6926 43.1992 55.0985 43.498 55.3979C43.7969 55.6972 44.2023 55.8654 44.625 55.8654C45.0477 55.8654 45.4531 55.6972 45.7519 55.3979C46.0508 55.0985 46.2187 54.6926 46.2187 54.2692C46.2187 52.1526 45.3792 50.1227 43.8848 48.626C42.3903 47.1293 40.3634 46.2885 38.25 46.2885C37.8273 46.2885 37.4219 46.4566 37.123 46.756C36.8242 47.0553 36.6562 47.4613 36.6562 47.8846C36.6562 48.3079 36.8242 48.7139 37.123 49.0133C37.4219 49.3126 37.8273 49.4808 38.25 49.4808Z" fill="#40AC6C"/>
<path d="M38.25 19.1539C38.25 15.3656 37.1283 11.6624 35.0269 8.51255C32.9254 5.36271 29.9385 2.90772 26.4438 1.45801C22.9492 0.00829909 19.1038 -0.371011 15.3939 0.368044C11.684 1.1071 8.27627 2.93133 5.60159 5.61004C2.92691 8.28875 1.10543 11.7016 0.36749 15.4171C-0.370452 19.1326 0.00828659 22.9838 1.45581 26.4837C2.90334 29.9836 5.35463 32.975 8.49972 35.0797C11.6448 37.1843 15.3424 38.3077 19.125 38.3077C24.1973 38.3077 29.0618 36.2897 32.6484 32.6977C36.2351 29.1056 38.25 24.2338 38.25 19.1539ZM19.125 35.1154C15.9729 35.1154 12.8915 34.1793 10.2706 32.4254C7.6497 30.6715 5.60695 28.1787 4.40067 25.2621C3.1944 22.3455 2.87879 19.1361 3.49374 16.0399C4.10869 12.9437 5.62659 10.0996 7.85549 7.86734C10.0844 5.63508 12.9242 4.11489 16.0158 3.49901C19.1073 2.88313 22.3118 3.19922 25.224 4.40732C28.1362 5.61541 30.6253 7.66124 32.3765 10.2861C34.1278 12.911 35.0625 15.997 35.0625 19.1539C35.0625 21.25 34.6503 23.3255 33.8493 25.2621C33.0484 27.1986 31.8744 28.9582 30.3945 30.4404C28.9146 31.9225 27.1576 33.0982 25.224 33.9004C23.2904 34.7025 21.2179 35.1154 19.125 35.1154Z" fill="#40AC6C"/>
<path d="M17.5313 6.38462C14.5724 6.38462 11.7348 7.56178 9.6426 9.65714C7.5504 11.7525 6.37501 14.5944 6.37501 17.5577C6.37501 17.981 6.54292 18.387 6.84181 18.6863C7.14069 18.9857 7.54607 19.1539 7.96876 19.1539C8.39145 19.1539 8.79682 18.9857 9.09571 18.6863C9.3946 18.387 9.56251 17.981 9.56251 17.5577C9.56251 15.4411 10.4021 13.4111 11.8965 11.9144C13.3909 10.4178 15.4178 9.57693 17.5313 9.57693C17.9539 9.57693 18.3593 9.40876 18.6582 9.10943C18.9571 8.81009 19.125 8.4041 19.125 7.98078C19.125 7.55745 18.9571 7.15146 18.6582 6.85213C18.3593 6.55279 17.9539 6.38462 17.5313 6.38462Z" fill="#40AC6C"/>
</svg>
