<svg width="85" height="85" fill="none" xmlns="http://www.w3.org/2000/svg"><g clip-path="url(#clip0_821_2574)" fill="#40AC6C"><path d="M18.164 14.79H2.5a2.5 2.5 0 0 1 0-5h15.664a2.5 2.5 0 0 1 0 5z"/><path d="M27.115 23.74c-6.314 0-11.45-5.136-11.45-11.45C15.664 5.975 20.8.838 27.114.838c6.315 0 11.451 5.137 11.451 11.452 0 6.314-5.136 11.45-11.45 11.45zm0-17.901a6.459 6.459 0 0 0-6.451 6.451 6.458 6.458 0 0 0 6.451 6.45 6.458 6.458 0 0 0 6.451-6.45 6.459 6.459 0 0 0-6.45-6.451zM82.5 14.79H45.135a2.5 2.5 0 0 1 0-5H82.5a2.5 2.5 0 0 1 0 5zM60.682 53.95c-6.315 0-11.452-5.136-11.452-11.45 0-6.314 5.137-11.45 11.452-11.45 6.314 0 11.45 5.136 11.45 11.45 0 6.314-5.136 11.45-11.45 11.45zm0-17.9a6.458 6.458 0 0 0-6.452 6.45 6.458 6.458 0 0 0 6.452 6.45 6.458 6.458 0 0 0 6.45-6.45 6.458 6.458 0 0 0-6.45-6.45zM42.662 45H2.5a2.5 2.5 0 0 1 0-5h40.162a2.5 2.5 0 0 1 0 5z"/><path d="M82.5 45H69.633a2.5 2.5 0 0 1 0-5H82.5a2.5 2.5 0 0 1 0 5zM24.318 84.162c-6.314 0-11.45-5.137-11.45-11.452 0-6.314 5.136-11.451 11.45-11.451 6.315 0 11.451 5.137 11.451 11.45 0 6.316-5.136 11.453-11.45 11.453zm0-17.903a6.458 6.458 0 0 0-6.45 6.45 6.459 6.459 0 0 0 6.45 6.452 6.459 6.459 0 0 0 6.451-6.451 6.458 6.458 0 0 0-6.45-6.45zM82.5 75.21H42.338a2.5 2.5 0 0 1 0-5H82.5a2.5 2.5 0 0 1 0 5z"/><path d="M15.367 75.21H2.5a2.5 2.5 0 0 1 0-5h12.867a2.5 2.5 0 0 1 0 5z"/></g><defs><clipPath id="clip0_821_2574"><path fill="#fff" d="M0 0h85v85H0z"/></clipPath></defs></svg>