<svg width="77" height="77" fill="none" xmlns="http://www.w3.org/2000/svg"><path d="M38.5 29.146c-5.158 0-9.354 4.196-9.354 9.354 0 5.158 4.196 9.354 9.354 9.354 5.158 0 9.354-4.196 9.354-9.354 0-5.158-4.196-9.354-9.354-9.354zm0 16.302a6.956 6.956 0 0 1-6.948-6.948 6.956 6.956 0 0 1 6.948-6.948 6.956 6.956 0 0 1 6.948 6.948 6.956 6.956 0 0 1-6.948 6.948zM7.97 18.618a2.245 2.245 0 0 0-2.242 2.242 2.245 2.245 0 0 0 2.243 2.243 2.245 2.245 0 0 0 2.242-2.243 2.245 2.245 0 0 0-2.242-2.242zm0 2.406a.162.162 0 0 1-.163-.164c0-.091.072-.163.164-.163.091 0 .163.072.163.163a.162.162 0 0 1-.163.164zM74.083 0H59.646a2.922 2.922 0 0 0-2.919 2.918v20.717a2.922 2.922 0 0 0 2.919 2.918h7.816v7.68h-9.39a1.199 1.199 0 0 0-.655-.304l-4.462-.57a15.31 15.31 0 0 0-.598-1.445l2.751-3.559a1.203 1.203 0 0 0-.1-1.586l-4.777-4.776a1.203 1.203 0 0 0-1.587-.102l-3.558 2.751c-.47-.223-.953-.423-1.444-.598l-.571-4.461a1.203 1.203 0 0 0-1.194-1.05h-6.754c-.606 0-1.117.45-1.194 1.05l-.57 4.461a15.46 15.46 0 0 0-1.445.598l-3.558-2.75a1.203 1.203 0 0 0-1.587.1l-4.776 4.777a1.203 1.203 0 0 0-.101 1.587l2.75 3.558c-.223.47-.423.953-.598 1.444l-4.461.571a1.197 1.197 0 0 0-.655.303h-9.39v-7.68h3.9a2.505 2.505 0 0 0 2.503-2.502V2.503A2.505 2.505 0 0 0 13.44 0H2.502A2.505 2.505 0 0 0 0 2.502V24.05a2.505 2.505 0 0 0 2.502 2.503h4.63v8.883c0 .664.538 1.203 1.202 1.203h10.199v3.722H8.334c-.664 0-1.203.539-1.203 1.203v14.704H1.203C.54 56.268 0 56.806 0 57.47v13.037c0 .665.539 1.204 1.203 1.204h7.53v.681L6.706 75.07a1.203 1.203 0 0 0 .96 1.93h8.597a1.203 1.203 0 0 0 .959-1.93l-2.027-2.677v-.681h7.53c.664 0 1.203-.54 1.203-1.204V57.471c0-.665-.539-1.203-1.203-1.203H9.538v-13.5h9.39a1.2 1.2 0 0 0 .655.303l4.462.57c.174.492.374.975.598 1.445l-2.751 3.558c-.37.48-.327 1.159.1 1.587l4.777 4.776a1.203 1.203 0 0 0 1.587.101l3.558-2.75c.47.223.953.423 1.444.597l.571 4.462c.077.6.588 1.05 1.194 1.05h6.754c.606 0 1.117-.45 1.194-1.05l.57-4.462c.492-.174.975-.374 1.445-.598l3.558 2.751c.48.37 1.159.327 1.587-.1l4.776-4.777a1.203 1.203 0 0 0 .101-1.587l-2.75-3.558c.223-.47.423-.953.598-1.444l4.461-.571c.253-.032.478-.142.655-.304h9.39v13.5H55.396a1.838 1.838 0 0 0-1.836 1.836V68.79a1.699 1.699 0 0 0-.07.149l-2.282 5.525a1.785 1.785 0 0 0 .155 1.7c.345.515.936.836 1.542.836h22.254c.606 0 1.197-.32 1.542-.837a1.785 1.785 0 0 0 .155-1.7l-2.282-5.524a1.877 1.877 0 0 0-.07-.15V58.103a1.838 1.838 0 0 0-1.836-1.835h-2.799V41.564c0-.664-.538-1.203-1.203-1.203H58.467V36.64h10.198c.665 0 1.203-.539 1.203-1.203v-8.883h4.214A2.922 2.922 0 0 0 77 23.635V2.918A2.922 2.922 0 0 0 74.082 0zM2.406 24.05V2.503a.1.1 0 0 1 .096-.097H13.44a.1.1 0 0 1 .096.096V24.05a.1.1 0 0 1-.096.097H2.502a.1.1 0 0 1-.096-.097zm10.627 49.473l.81 1.07h-3.758l.81-1.07c.159-.209.244-.464.244-.726v-1.085h1.65v1.085c0 .262.085.517.244.726zm8.489-4.218H2.406V58.674h19.116v10.631zm32.235 5.289l1.81-4.384h16.928l1.81 4.384H53.757zm18.34-6.79H55.964v-9.13h16.131v9.13zM56.06 40.818l-4.165.533a1.2 1.2 0 0 0-1 .85 12.9 12.9 0 0 1-1.014 2.446c-.227.419-.185.932.106 1.309l2.569 3.322-3.279 3.279-3.322-2.569a1.203 1.203 0 0 0-1.309-.106c-.775.42-1.598.76-2.446 1.013-.456.136-.79.528-.85 1l-.533 4.166h-4.636l-.533-4.166a1.203 1.203 0 0 0-.85-1 12.899 12.899 0 0 1-2.446-1.013 1.203 1.203 0 0 0-1.309.106l-3.322 2.569-3.279-3.279 2.569-3.322c.291-.377.333-.89.106-1.309a12.88 12.88 0 0 1-1.013-2.446 1.203 1.203 0 0 0-1-.85l-4.166-.533v-4.636l4.166-.534c.472-.06.864-.393 1-.849.253-.848.593-1.67 1.013-2.446a1.203 1.203 0 0 0-.106-1.309l-2.569-3.322 3.279-3.279 3.322 2.569c.377.29.89.333 1.309.106.775-.42 1.598-.76 2.446-1.013.456-.137.79-.529.85-1l.533-4.166h4.636l.533 4.165c.06.473.394.864.85 1 .848.253 1.67.594 2.446 1.014.419.227.932.185 1.309-.106l3.322-2.569 3.279 3.279-2.569 3.322c-.291.377-.333.89-.106 1.309.42.775.76 1.598 1.014 2.446a1.2 1.2 0 0 0 1 .85l4.165.532v4.637zm18.533-17.183a.519.519 0 0 1-.512.511H59.646a.519.519 0 0 1-.513-.511V2.918a.52.52 0 0 1 .512-.512h14.437a.52.52 0 0 1 .512.512v20.717zm-7.73-5.017a2.245 2.245 0 0 0-2.243 2.242 2.245 2.245 0 0 0 2.243 2.243 2.245 2.245 0 0 0 2.242-2.243 2.245 2.245 0 0 0-2.242-2.242zm0 2.406a.162.162 0 0 1-.164-.164c0-.091.072-.163.163-.163.092 0 .164.072.164.163a.162.162 0 0 1-.163.164z" fill="#40AC6C"/></svg>