<svg width="57" height="57" viewBox="0 0 57 57" fill="none" xmlns="http://www.w3.org/2000/svg">
<path d="M28.0164 36.2887L26.8361 21.007V11H31.1639V21.007L29.9836 36.2887H28.0164ZM29 46C27.9508 46 27.1803 45.7371 26.6885 45.2113C26.2295 44.6854 26 43.9953 26 43.1408V42.5C26 41.6455 26.2295 40.9554 26.6885 40.4296C27.1803 39.9038 27.9508 39.6408 29 39.6408C30.0492 39.6408 30.8033 39.9038 31.2623 40.4296C31.7541 40.9554 32 41.6455 32 42.5V43.1408C32 43.9953 31.7541 44.6854 31.2623 45.2113C30.8033 45.7371 30.0492 46 29 46Z" fill="white"/>
<circle cx="28.5" cy="28.5" r="28" stroke="white"/>
</svg>
