<svg width="407" height="344" viewBox="0 0 407 344" fill="none" xmlns="http://www.w3.org/2000/svg">
<path fill-rule="evenodd" clip-rule="evenodd" d="M198.392 1.4375C257.826 -2.1347 318.664 16.0161 357.267 61.5038C397.271 108.641 420.76 177.278 395.597 233.809C372.971 284.638 303.072 278.805 251.456 299.213C208.197 316.317 170.391 352.613 125.459 340.614C70.5964 325.964 17.5593 288.486 4.0626 233.15C-9.59645 177.149 24.7198 123.379 61.7149 79.2675C97.2018 36.954 143.378 4.74402 198.392 1.4375Z" stroke="#D9D9D9"/>
<path fill-rule="evenodd" clip-rule="evenodd" d="M200.225 31.3607C249.973 28.4152 300.896 43.3817 333.209 80.8891C366.694 119.757 386.355 176.352 365.292 222.965C346.353 264.877 287.845 260.068 244.641 276.895C208.432 290.998 176.787 320.926 139.177 311.033C93.2548 298.953 48.8607 268.05 37.5635 222.422C26.1304 176.246 54.8543 131.909 85.8206 95.5364C115.524 60.6463 154.176 34.0872 200.225 31.3607Z" stroke="#D9D9D9"/>
<path fill-rule="evenodd" clip-rule="evenodd" d="M200.645 59.2891C239.681 56.9285 279.638 68.9229 304.993 98.982C331.267 130.131 346.694 175.488 330.167 212.844C315.307 246.434 269.398 242.579 235.497 256.065C207.085 267.367 182.254 291.352 152.743 283.424C116.71 273.742 81.876 248.976 73.0115 212.409C64.0404 175.403 86.5789 139.871 110.877 110.721C134.184 82.7591 164.513 61.4741 200.645 59.2891Z" stroke="#D9D9D9"/>
<path fill-rule="evenodd" clip-rule="evenodd" d="M201.932 103.177C225.999 101.735 250.634 109.059 266.266 127.414C282.465 146.434 291.977 174.13 281.787 196.94C272.625 217.451 244.32 215.097 223.419 223.332C205.902 230.233 190.593 244.879 172.398 240.037C150.182 234.126 128.705 219.003 123.24 196.675C117.709 174.078 131.605 152.381 146.586 134.582C160.956 117.508 179.654 104.511 201.932 103.177Z" stroke="#D9D9D9"/>
</svg>
