<svg width="147" height="28" viewBox="0 0 147 28" fill="none" xmlns="http://www.w3.org/2000/svg">
<path d="M12.7646 9.07672C12.8735 8.9133 13.0513 8.81869 13.2462 8.81869C13.4354 8.81869 13.6161 8.9133 13.7221 9.07098C13.7365 9.09105 13.7508 9.11685 13.7623 9.14266L19.9665 19.8882H22.3489L14.1551 5.69079C13.9744 5.35535 13.6247 5.14893 13.2462 5.14893C12.8792 5.14893 12.5381 5.34675 12.3517 5.66499L12.3202 5.71659L4.14062 19.8853H6.5231L12.733 9.13119C12.7416 9.11112 12.7531 9.09392 12.7646 9.07672Z" fill="#539266"/>
<path d="M26.0617 18.9939L16.83 3.00175H16.8329L16.0244 1.60265C15.4538 0.613538 14.3873 0 13.2463 0C12.1052 0 11.0415 0.613538 10.4681 1.60265L10.1528 2.15025L0.4279 18.9939C-0.142633 19.983 -0.142633 21.2129 0.4279 22.1992C0.998433 23.1883 2.06209 23.8018 3.20315 23.8018L5.81499 23.8047L5.96121 23.8018H11.053H11.0989C11.7153 23.8276 12.1969 24.3294 12.1969 24.9429V27.4314H14.2612V24.9429C14.2612 23.174 12.8219 21.7347 11.053 21.7347H3.18309C2.78457 21.7261 2.41473 21.5054 2.21691 21.1642C2.01335 20.8115 2.01335 20.3729 2.21691 20.0203L12.2686 2.61184C12.475 2.27066 12.8506 2.05851 13.2491 2.05851C13.6476 2.05851 14.0232 2.27066 14.2296 2.61184L24.2785 20.0174C24.482 20.37 24.482 20.8087 24.2785 21.1613C24.0806 21.5025 23.7108 21.7233 23.3152 21.7319H19.8432H19.783C19.3759 21.7319 18.9946 21.5111 18.791 21.1585L14.158 13.1309C13.9773 12.7954 13.6276 12.589 13.2491 12.589C12.8821 12.589 12.541 12.7868 12.3546 13.1051L12.3231 13.1567L8.44403 19.874H10.8265L12.7331 16.5827C12.7417 16.5627 12.7531 16.5455 12.7646 16.5283C12.8735 16.3648 13.0513 16.2702 13.2463 16.2702C13.4355 16.2702 13.6161 16.3648 13.7222 16.5225C13.7365 16.5426 13.7508 16.5684 13.7623 16.5942L16.9992 22.202C17.5697 23.1912 18.6333 23.8047 19.7744 23.8047H20.474L20.4711 23.8076H21.9791H22.4694H22.5927H23.2779C24.419 23.8076 25.4826 23.1912 26.0531 22.2049C26.6323 21.2129 26.6323 19.983 26.0617 18.9939Z" fill="#539266"/>
<path d="M44.5601 13.6869L43.657 14.5413C43.0091 13.902 42.2981 13.4174 41.524 13.0877C40.7499 12.758 39.9987 12.5917 39.2648 12.5917C38.3531 12.5917 37.4815 12.8154 36.6558 13.2655C35.8301 13.7127 35.1908 14.3234 34.7378 15.0889C34.2848 15.8573 34.0583 16.6686 34.0583 17.523C34.0583 18.4003 34.2934 19.2317 34.7636 20.0201C35.2338 20.8086 35.8817 21.4278 36.7103 21.8808C37.5389 22.3309 38.4477 22.5574 39.4339 22.5574C40.6323 22.5574 41.6444 22.2191 42.473 21.5454C43.3015 20.8688 43.7918 19.9943 43.9437 18.9163H40.231V17.7925H45.2482C45.2367 19.593 44.7035 21.0207 43.6456 22.0786C42.5876 23.1366 41.1713 23.667 39.3995 23.667C37.2464 23.667 35.5434 22.933 34.2877 21.468C33.3215 20.3384 32.8398 19.0339 32.8398 17.5488C32.8398 16.445 33.1179 15.4186 33.6713 14.4696C34.2246 13.5207 34.9844 12.7781 35.9505 12.242C36.9167 11.7058 38.009 11.4392 39.2275 11.4392C40.2138 11.4392 41.1427 11.617 42.0142 11.9725C42.8858 12.328 43.7316 12.9014 44.5601 13.6869Z" fill="#539266"/>
<path d="M47.4292 14.7654H48.5617V16.024C48.9 15.5281 49.2555 15.1582 49.6311 14.9117C50.0066 14.6651 50.3965 14.5447 50.8037 14.5447C51.1104 14.5447 51.4373 14.6422 51.7842 14.8371L51.205 15.7718C50.9728 15.6714 50.7779 15.6227 50.6202 15.6227C50.2503 15.6227 49.8948 15.7746 49.5508 16.0785C49.2067 16.3824 48.9458 16.8526 48.7681 17.492C48.6305 17.9822 48.5617 18.9742 48.5617 20.4679V23.3808H47.4292V14.7654Z" fill="#539266"/>
<path d="M57.369 14.5447C58.6964 14.5447 59.7945 15.0235 60.666 15.9839C61.4602 16.8583 61.8558 17.8962 61.8558 19.0946C61.8558 20.2987 61.4373 21.3481 60.6001 22.2483C59.7629 23.1485 58.6849 23.5987 57.369 23.5987C56.0473 23.5987 54.9664 23.1485 54.1293 22.2483C53.2921 21.3481 52.8735 20.2959 52.8735 19.0946C52.8735 17.9019 53.2692 16.8669 54.0633 15.9925C54.9349 15.0263 56.0358 14.5447 57.369 14.5447ZM57.3633 15.6284C56.443 15.6284 55.6488 15.9696 54.9894 16.6491C54.33 17.3285 53.9974 18.1542 53.9974 19.1175C53.9974 19.7397 54.1493 20.3217 54.4504 20.8578C54.7514 21.3968 55.1585 21.8125 55.6746 22.105C56.1878 22.3974 56.7526 22.5436 57.3661 22.5436C57.9797 22.5436 58.5445 22.3974 59.0577 22.105C59.5708 21.8125 59.978 21.3968 60.2819 20.8578C60.5829 20.3188 60.7348 19.7397 60.7348 19.1175C60.7348 18.1514 60.4023 17.3285 59.7371 16.6491C59.072 15.9667 58.2807 15.6284 57.3633 15.6284Z" fill="#539266"/>
<path d="M63.3096 14.7649H64.4506L67.0911 21.0178L69.8377 14.7649H70.0384L72.8051 21.0178L75.4943 14.7649H76.6469L72.9054 23.3774H72.699L69.9467 17.2104L67.1944 23.3774H66.9879L63.3096 14.7649Z" fill="#539266"/>
<path d="M78.6943 23.3748V11.7319H81.1083C82.8486 11.7319 84.113 11.8724 84.8985 12.1505C86.0281 12.5462 86.9112 13.2314 87.5448 14.209C88.1812 15.1867 88.4995 16.3478 88.4995 17.6982C88.4995 18.865 88.2472 19.8914 87.7426 20.7773C87.238 21.6632 86.5843 22.3169 85.7787 22.7412C84.9731 23.1627 83.8463 23.3748 82.3956 23.3748H78.6943ZM79.8096 22.2768H81.1542C82.7626 22.2768 83.8807 22.1764 84.5029 21.9757C85.3773 21.6919 86.0683 21.1787 86.57 20.439C87.0717 19.6993 87.3211 18.7934 87.3211 17.7211C87.3211 16.5972 87.0488 15.6397 86.5069 14.8426C85.9622 14.0456 85.2053 13.5009 84.2362 13.2056C83.508 12.9848 82.3068 12.873 80.6353 12.873H79.8125V22.2768H79.8096Z" fill="#539266"/>
<path d="M44.5601 13.6869L43.657 14.5413C43.0091 13.902 42.2981 13.4174 41.524 13.0877C40.7499 12.758 39.9987 12.5917 39.2648 12.5917C38.3531 12.5917 37.4815 12.8154 36.6558 13.2655C35.8301 13.7127 35.1908 14.3234 34.7378 15.0889C34.2848 15.8573 34.0583 16.6686 34.0583 17.523C34.0583 18.4003 34.2934 19.2317 34.7636 20.0201C35.2338 20.8086 35.8817 21.4278 36.7103 21.8808C37.5389 22.3309 38.4477 22.5574 39.4339 22.5574C40.6323 22.5574 41.6444 22.2191 42.473 21.5454C43.3015 20.8688 43.7918 19.9943 43.9437 18.9163H40.231V17.7925H45.2482C45.2367 19.593 44.7035 21.0207 43.6456 22.0786C42.5876 23.1366 41.1713 23.667 39.3995 23.667C37.2464 23.667 35.5434 22.933 34.2877 21.468C33.3215 20.3384 32.8398 19.0339 32.8398 17.5488C32.8398 16.445 33.1179 15.4186 33.6713 14.4696C34.2246 13.5207 34.9844 12.7781 35.9505 12.242C36.9167 11.7058 38.009 11.4392 39.2275 11.4392C40.2138 11.4392 41.1427 11.617 42.0142 11.9725C42.8858 12.328 43.7316 12.9014 44.5601 13.6869Z" stroke="#539266" stroke-miterlimit="10"/>
<path d="M47.4292 14.7654H48.5617V16.024C48.9 15.5281 49.2555 15.1582 49.6311 14.9117C50.0066 14.6651 50.3965 14.5447 50.8037 14.5447C51.1104 14.5447 51.4373 14.6422 51.7842 14.8371L51.205 15.7718C50.9728 15.6714 50.7779 15.6227 50.6202 15.6227C50.2503 15.6227 49.8948 15.7746 49.5508 16.0785C49.2067 16.3824 48.9458 16.8526 48.7681 17.492C48.6305 17.9822 48.5617 18.9742 48.5617 20.4679V23.3808H47.4292V14.7654Z" stroke="#539266" stroke-miterlimit="10"/>
<path d="M57.369 14.5447C58.6964 14.5447 59.7945 15.0235 60.666 15.9839C61.4602 16.8583 61.8558 17.8962 61.8558 19.0946C61.8558 20.2987 61.4373 21.3481 60.6001 22.2483C59.7629 23.1485 58.6849 23.5987 57.369 23.5987C56.0473 23.5987 54.9664 23.1485 54.1293 22.2483C53.2921 21.3481 52.8735 20.2959 52.8735 19.0946C52.8735 17.9019 53.2692 16.8669 54.0633 15.9925C54.9349 15.0263 56.0358 14.5447 57.369 14.5447ZM57.3633 15.6284C56.443 15.6284 55.6488 15.9696 54.9894 16.6491C54.33 17.3285 53.9974 18.1542 53.9974 19.1175C53.9974 19.7397 54.1493 20.3217 54.4504 20.8578C54.7514 21.3968 55.1585 21.8125 55.6746 22.105C56.1878 22.3974 56.7526 22.5436 57.3661 22.5436C57.9797 22.5436 58.5445 22.3974 59.0577 22.105C59.5708 21.8125 59.978 21.3968 60.2819 20.8578C60.5829 20.3188 60.7348 19.7397 60.7348 19.1175C60.7348 18.1514 60.4023 17.3285 59.7371 16.6491C59.072 15.9667 58.2807 15.6284 57.3633 15.6284Z" stroke="#539266" stroke-miterlimit="10"/>
<path d="M63.3096 14.7649H64.4506L67.0911 21.0178L69.8377 14.7649H70.0384L72.8051 21.0178L75.4943 14.7649H76.6469L72.9054 23.3774H72.699L69.9467 17.2104L67.1944 23.3774H66.9879L63.3096 14.7649Z" stroke="#539266" stroke-miterlimit="10"/>
<path d="M78.6943 23.3748V11.7319H81.1083C82.8486 11.7319 84.113 11.8724 84.8985 12.1505C86.0281 12.5462 86.9112 13.2314 87.5448 14.209C88.1812 15.1867 88.4995 16.3478 88.4995 17.6982C88.4995 18.865 88.2472 19.8914 87.7426 20.7773C87.238 21.6632 86.5843 22.3169 85.7787 22.7412C84.9731 23.1627 83.8463 23.3748 82.3956 23.3748H78.6943ZM79.8096 22.2768H81.1542C82.7626 22.2768 83.8807 22.1764 84.5029 21.9757C85.3773 21.6919 86.0683 21.1787 86.57 20.439C87.0717 19.6993 87.3211 18.7934 87.3211 17.7211C87.3211 16.5972 87.0488 15.6397 86.5069 14.8426C85.9622 14.0456 85.2053 13.5009 84.2362 13.2056C83.508 12.9848 82.3068 12.873 80.6353 12.873H79.8125V22.2768H79.8096Z" stroke="#539266" stroke-miterlimit="10"/>
<path d="M92.7424 11.2188C92.9947 11.2188 93.2097 11.3076 93.3875 11.4882C93.5652 11.6689 93.6541 11.8839 93.6541 12.1362C93.6541 12.3856 93.5652 12.5978 93.3875 12.7784C93.2097 12.959 92.9918 13.0479 92.7424 13.0479C92.4958 13.0479 92.2837 12.959 92.1031 12.7784C91.9253 12.5978 91.8364 12.3856 91.8364 12.1362C91.8364 11.8839 91.9253 11.666 92.1031 11.4882C92.2808 11.3105 92.4958 11.2188 92.7424 11.2188ZM92.1919 14.7652H93.3015V23.3777H92.1919V14.7652Z" fill="#539266"/>
<path d="M92.7424 11.2188C92.9947 11.2188 93.2097 11.3076 93.3875 11.4882C93.5652 11.6689 93.6541 11.8839 93.6541 12.1362C93.6541 12.3856 93.5652 12.5978 93.3875 12.7784C93.2097 12.959 92.9918 13.0479 92.7424 13.0479C92.4958 13.0479 92.2837 12.959 92.1031 12.7784C91.9253 12.5978 91.8364 12.3856 91.8364 12.1362C91.8364 11.8839 91.9253 11.666 92.1031 11.4882C92.2808 11.3105 92.4958 11.2188 92.7424 11.2188ZM92.1919 14.7652H93.3015V23.3777H92.1919V14.7652Z" stroke="#539266" stroke-miterlimit="10"/>
<path d="M96.8052 14.7652H97.9376V16.0238C98.2759 15.5278 98.6315 15.158 99.007 14.9114C99.3826 14.6648 99.7725 14.5444 100.18 14.5444C100.486 14.5444 100.813 14.6419 101.16 14.8369L100.581 15.7715C100.349 15.6712 100.154 15.6224 99.9961 15.6224C99.6263 15.6224 99.2708 15.7744 98.9268 16.0783C98.5827 16.3822 98.3218 16.8524 98.1441 17.4917C98.0065 17.982 97.9376 18.9739 97.9376 20.4677V23.3805H96.8052V14.7652Z" fill="#539266"/>
<path d="M109.916 20.5192L110.851 21.0095C110.544 21.6115 110.191 22.0961 109.79 22.4659C109.388 22.8357 108.938 23.1167 108.436 23.3088C107.935 23.5009 107.367 23.5984 106.733 23.5984C105.329 23.5984 104.231 23.1368 103.439 22.2165C102.648 21.2962 102.25 20.2554 102.25 19.0943C102.25 18.002 102.585 17.0272 103.256 16.1728C104.104 15.0862 105.246 14.5415 106.67 14.5415C108.138 14.5415 109.311 15.0977 110.188 16.2101C110.81 16.9957 111.129 17.979 111.14 19.1545H103.388C103.408 20.1551 103.729 20.9751 104.345 21.6144C104.965 22.2537 105.727 22.5748 106.636 22.5748C107.075 22.5748 107.502 22.4974 107.915 22.3455C108.33 22.1935 108.683 21.99 108.973 21.7377C109.262 21.4854 109.578 21.0811 109.916 20.5192ZM109.916 18.1998C109.767 17.6092 109.552 17.1361 109.271 16.7835C108.987 16.4309 108.614 16.1442 108.15 15.9291C107.685 15.7141 107.195 15.6052 106.685 15.6052C105.839 15.6052 105.114 15.8775 104.506 16.4194C104.061 16.815 103.726 17.4085 103.5 18.1998H109.916Z" fill="#539266"/>
<path d="M122.127 16.5544L121.249 17.102C120.49 16.0928 119.455 15.5911 118.142 15.5911C117.092 15.5911 116.221 15.9294 115.53 16.6031C114.836 17.2769 114.489 18.0968 114.489 19.063C114.489 19.6909 114.65 20.2815 114.968 20.8348C115.286 21.3881 115.725 21.8182 116.281 22.125C116.837 22.4317 117.459 22.5837 118.15 22.5837C119.415 22.5837 120.45 22.0791 121.249 21.0728L122.127 21.6519C121.714 22.2712 121.163 22.7528 120.47 23.094C119.776 23.4352 118.985 23.6072 118.099 23.6072C116.737 23.6072 115.607 23.1743 114.71 22.3085C113.812 21.4426 113.365 20.3904 113.365 19.1519C113.365 18.3176 113.575 17.5435 113.993 16.8296C114.412 16.1157 114.988 15.5567 115.722 15.1553C116.456 14.7539 117.276 14.5532 118.185 14.5532C118.755 14.5532 119.306 14.6392 119.836 14.8141C120.366 14.989 120.817 15.2155 121.186 15.4965C121.556 15.7774 121.869 16.1215 122.127 16.5544Z" fill="#539266"/>
<path d="M125.788 11.5654H126.894V14.7621H128.652V15.7197H126.894V23.3746H125.788V15.7197H124.277V14.7621H125.788V11.5654Z" fill="#539266"/>
<path d="M134.959 14.5444C136.287 14.5444 137.385 15.0232 138.256 15.9837C139.051 16.8581 139.446 17.896 139.446 19.0944C139.446 20.2985 139.028 21.3478 138.19 22.2481C137.353 23.1483 136.275 23.5984 134.959 23.5984C133.638 23.5984 132.557 23.1483 131.72 22.2481C130.882 21.3478 130.464 20.2956 130.464 19.0944C130.464 17.9017 130.86 16.8667 131.654 15.9923C132.525 15.0261 133.629 14.5444 134.959 14.5444ZM134.956 15.6282C134.036 15.6282 133.245 15.9693 132.583 16.6488C131.92 17.3283 131.591 18.154 131.591 19.1173C131.591 19.7394 131.743 20.3214 132.044 20.8576C132.345 21.3966 132.752 21.8123 133.268 22.1047C133.781 22.3971 134.346 22.5434 134.959 22.5434C135.573 22.5434 136.138 22.3971 136.651 22.1047C137.164 21.8123 137.571 21.3966 137.875 20.8576C138.176 20.3186 138.328 19.7394 138.328 19.1173C138.328 18.1511 137.995 17.3283 137.33 16.6488C136.665 15.9693 135.871 15.6282 134.956 15.6282Z" fill="#539266"/>
<path d="M141.645 14.7652H142.777V16.0238C143.116 15.5278 143.471 15.158 143.847 14.9114C144.222 14.6648 144.612 14.5444 145.019 14.5444C145.326 14.5444 145.653 14.6419 146 14.8369L145.421 15.7715C145.189 15.6712 144.994 15.6224 144.836 15.6224C144.466 15.6224 144.111 15.7744 143.767 16.0783C143.423 16.3822 143.162 16.8524 142.984 17.4917C142.846 17.982 142.777 18.9739 142.777 20.4677V23.3805H141.645V14.7652Z" fill="#539266"/>
<path d="M96.8052 14.7652H97.9376V16.0238C98.276 15.5278 98.6315 15.158 99.007 14.9114C99.3826 14.6648 99.7725 14.5444 100.18 14.5444C100.486 14.5444 100.813 14.6419 101.16 14.8369L100.581 15.7715C100.349 15.6712 100.154 15.6224 99.9961 15.6224C99.6263 15.6224 99.2708 15.7744 98.9268 16.0783C98.5827 16.3822 98.3218 16.8524 98.1441 17.4917C98.0065 17.982 97.9376 18.9739 97.9376 20.4677V23.3805H96.8052V14.7652Z" stroke="#539266" stroke-miterlimit="10"/>
<path d="M109.916 20.5192L110.851 21.0095C110.544 21.6115 110.191 22.0961 109.79 22.4659C109.388 22.8357 108.938 23.1167 108.436 23.3088C107.935 23.5009 107.367 23.5984 106.733 23.5984C105.329 23.5984 104.231 23.1368 103.439 22.2165C102.648 21.2962 102.25 20.2554 102.25 19.0943C102.25 18.002 102.585 17.0272 103.256 16.1728C104.104 15.0862 105.246 14.5415 106.67 14.5415C108.138 14.5415 109.311 15.0977 110.188 16.2101C110.81 16.9957 111.129 17.979 111.14 19.1545H103.388C103.408 20.1551 103.729 20.9751 104.345 21.6144C104.965 22.2537 105.727 22.5748 106.636 22.5748C107.075 22.5748 107.502 22.4974 107.915 22.3455C108.33 22.1935 108.683 21.99 108.973 21.7377C109.262 21.4854 109.578 21.0811 109.916 20.5192ZM109.916 18.1998C109.767 17.6092 109.552 17.1361 109.271 16.7835C108.987 16.4309 108.614 16.1442 108.15 15.9291C107.685 15.7141 107.195 15.6052 106.685 15.6052C105.839 15.6052 105.114 15.8775 104.506 16.4194C104.061 16.815 103.726 17.4085 103.5 18.1998H109.916Z" stroke="#539266" stroke-miterlimit="10"/>
<path d="M122.127 16.5544L121.249 17.102C120.49 16.0928 119.455 15.5911 118.142 15.5911C117.092 15.5911 116.221 15.9294 115.53 16.6031C114.836 17.2769 114.489 18.0968 114.489 19.063C114.489 19.6909 114.65 20.2815 114.968 20.8348C115.286 21.3881 115.725 21.8182 116.281 22.125C116.837 22.4317 117.459 22.5837 118.15 22.5837C119.415 22.5837 120.45 22.0791 121.249 21.0728L122.127 21.6519C121.714 22.2712 121.163 22.7528 120.47 23.094C119.776 23.4352 118.985 23.6072 118.099 23.6072C116.737 23.6072 115.607 23.1743 114.71 22.3085C113.812 21.4426 113.365 20.3904 113.365 19.1519C113.365 18.3176 113.575 17.5435 113.993 16.8296C114.412 16.1157 114.988 15.5567 115.722 15.1553C116.456 14.7539 117.276 14.5532 118.185 14.5532C118.755 14.5532 119.306 14.6392 119.836 14.8141C120.366 14.989 120.817 15.2155 121.186 15.4965C121.556 15.7774 121.869 16.1215 122.127 16.5544Z" stroke="#539266" stroke-miterlimit="10"/>
<path d="M125.788 11.5654H126.894V14.7621H128.652V15.7197H126.894V23.3746H125.788V15.7197H124.277V14.7621H125.788V11.5654Z" stroke="#539266" stroke-miterlimit="10"/>
<path d="M134.959 14.5444C136.287 14.5444 137.385 15.0232 138.256 15.9837C139.051 16.8581 139.446 17.896 139.446 19.0944C139.446 20.2985 139.028 21.3478 138.19 22.2481C137.353 23.1483 136.275 23.5984 134.959 23.5984C133.638 23.5984 132.557 23.1483 131.72 22.2481C130.882 21.3478 130.464 20.2956 130.464 19.0944C130.464 17.9017 130.86 16.8667 131.654 15.9923C132.525 15.0261 133.629 14.5444 134.959 14.5444ZM134.956 15.6282C134.036 15.6282 133.245 15.9693 132.583 16.6488C131.92 17.3283 131.591 18.154 131.591 19.1173C131.591 19.7394 131.743 20.3214 132.044 20.8576C132.345 21.3966 132.752 21.8123 133.268 22.1047C133.781 22.3971 134.346 22.5434 134.959 22.5434C135.573 22.5434 136.138 22.3971 136.651 22.1047C137.164 21.8123 137.571 21.3966 137.875 20.8576C138.176 20.3186 138.328 19.7394 138.328 19.1173C138.328 18.1511 137.995 17.3283 137.33 16.6488C136.665 15.9693 135.871 15.6282 134.956 15.6282Z" stroke="#539266" stroke-miterlimit="10"/>
<path d="M141.645 14.7652H142.777V16.0238C143.116 15.5278 143.471 15.158 143.847 14.9114C144.222 14.6648 144.612 14.5444 145.019 14.5444C145.326 14.5444 145.653 14.6419 146 14.8369L145.421 15.7715C145.189 15.6712 144.994 15.6224 144.836 15.6224C144.466 15.6224 144.111 15.7744 143.767 16.0783C143.423 16.3822 143.162 16.8524 142.984 17.4917C142.846 17.982 142.777 18.9739 142.777 20.4677V23.3805H141.645V14.7652Z" stroke="#539266" stroke-miterlimit="10"/>
</svg>
