<svg width="27" height="28" fill="none" xmlns="http://www.w3.org/2000/svg"><path d="M12.765 9.077a.576.576 0 0 1 .998.066l6.204 10.745h2.382L14.155 5.691a1.031 1.031 0 0 0-1.803-.026l-.032.052-8.18 14.168h2.383l6.21-10.754a.32.32 0 0 1 .032-.054z" fill="#539266"/><path d="M26.062 18.994L16.83 3.002h.003l-.809-1.4A3.217 3.217 0 0 0 13.246 0a3.22 3.22 0 0 0-2.778 1.603l-.315.547L.428 18.994a3.217 3.217 0 0 0 0 3.205 3.212 3.212 0 0 0 2.775 1.603l2.612.003.146-.003H11.1a1.141 1.141 0 0 1 1.098 1.14v2.49h2.064v-2.49a3.212 3.212 0 0 0-3.208-3.207h-7.87a1.153 1.153 0 0 1-.966-.57 1.148 1.148 0 0 1 0-1.145L12.269 2.612c.206-.341.582-.553.98-.553.399 0 .774.212.98.553l10.05 17.405a1.15 1.15 0 0 1 0 1.144 1.152 1.152 0 0 1-.964.57h-3.532a1.15 1.15 0 0 1-.992-.573l-4.633-8.027a1.031 1.031 0 0 0-1.803-.026l-.032.052-3.879 6.717h2.382l1.907-3.291a.573.573 0 0 1 .513-.313.576.576 0 0 1 .516.324L17 22.202a3.212 3.212 0 0 0 2.775 1.603h.7l-.003.003h2.807a3.218 3.218 0 0 0 2.784-4.814z" fill="#539266"/></svg>