<svg width="147" height="28" fill="none" xmlns="http://www.w3.org/2000/svg"><path d="M12.765 9.077a.576.576 0 0 1 .998.066l6.204 10.745h2.382L14.155 5.691a1.031 1.031 0 0 0-1.803-.026l-.032.052-8.18 14.168h2.383l6.21-10.754a.32.32 0 0 1 .032-.054z" fill="#539266"/><path d="M26.062 18.994L16.83 3.002h.003l-.809-1.4A3.217 3.217 0 0 0 13.246 0a3.22 3.22 0 0 0-2.778 1.603l-.315.547L.428 18.994a3.217 3.217 0 0 0 0 3.205 3.212 3.212 0 0 0 2.775 1.603l2.612.003.146-.003H11.1a1.141 1.141 0 0 1 1.098 1.14v2.49h2.064v-2.49a3.212 3.212 0 0 0-3.208-3.207h-7.87a1.153 1.153 0 0 1-.966-.57 1.148 1.148 0 0 1 0-1.145L12.269 2.612c.206-.341.582-.553.98-.553.399 0 .774.212.98.553l10.05 17.405a1.15 1.15 0 0 1 0 1.144 1.152 1.152 0 0 1-.964.57h-3.532a1.15 1.15 0 0 1-.992-.573l-4.633-8.027a1.031 1.031 0 0 0-1.803-.026l-.032.052-3.879 6.717h2.382l1.907-3.291a.573.573 0 0 1 .513-.313.576.576 0 0 1 .516.324L17 22.202a3.212 3.212 0 0 0 2.775 1.603h.7l-.003.003h2.807a3.218 3.218 0 0 0 2.784-4.814zm18.498-5.307l-.903.854a6.852 6.852 0 0 0-2.133-1.453c-.774-.33-1.525-.496-2.26-.496-.91 0-1.783.223-2.608.673a4.88 4.88 0 0 0-1.918 1.824 4.72 4.72 0 0 0-.68 2.434c0 .877.235 1.709.706 2.497a5.023 5.023 0 0 0 1.946 1.86c.829.45 1.738.677 2.724.677 1.198 0 2.21-.338 3.039-1.012.828-.676 1.319-1.55 1.47-2.629h-3.712v-1.123h5.017c-.011 1.8-.544 3.228-1.602 4.286-1.058 1.058-2.475 1.588-4.246 1.588-2.154 0-3.857-.734-5.112-2.199a5.845 5.845 0 0 1-1.448-3.92c0-1.103.278-2.13.831-3.078a5.91 5.91 0 0 1 2.28-2.228c.966-.536 2.058-.803 3.276-.803.987 0 1.916.178 2.787.534.872.355 1.718.928 2.546 1.714zm2.87 1.078h1.132v1.259c.338-.496.694-.866 1.07-1.112a2.1 2.1 0 0 1 1.172-.367c.306 0 .633.097.98.292l-.579.935c-.232-.1-.427-.15-.585-.15-.37 0-.725.153-1.07.456-.343.304-.604.775-.782 1.414-.138.49-.206 1.482-.206 2.976v2.913h-1.133v-8.616zm9.939-.22c1.327 0 2.425.479 3.297 1.439.794.874 1.19 1.912 1.19 3.11 0 1.205-.419 2.254-1.256 3.154-.837.9-1.915 1.35-3.231 1.35-1.322 0-2.403-.45-3.24-1.35-.837-.9-1.255-1.952-1.255-3.153 0-1.193.395-2.228 1.19-3.102.87-.967 1.972-1.448 3.305-1.448zm-.006 1.083c-.92 0-1.714.342-2.374 1.021-.659.68-.992 1.505-.992 2.468 0 .623.152 1.205.453 1.74.301.54.708.956 1.225 1.248a3.36 3.36 0 0 0 1.691.439 3.36 3.36 0 0 0 1.692-.439c.513-.293.92-.708 1.224-1.247a3.51 3.51 0 0 0 .453-1.74c0-.967-.333-1.79-.998-2.469-.665-.682-1.456-1.02-2.374-1.02zm5.947-.863h1.14l2.641 6.253 2.747-6.253h.2l2.767 6.253 2.69-6.253h1.152l-3.742 8.612H72.7l-2.752-6.167-2.753 6.167h-.206l-3.678-8.612zm15.384 8.61V11.732h2.414c1.74 0 3.005.14 3.79.418 1.13.396 2.013 1.081 2.647 2.059.636.978.954 2.139.954 3.49 0 1.166-.252 2.192-.756 3.078-.505.886-1.159 1.54-1.964 1.964-.806.422-1.933.634-3.383.634h-3.702zm1.116-1.098h1.344c1.609 0 2.727-.1 3.349-.301a3.87 3.87 0 0 0 2.067-1.537c.502-.74.751-1.646.751-2.718 0-1.124-.272-2.081-.814-2.878-.545-.797-1.302-1.342-2.27-1.637-.729-.221-1.93-.333-3.602-.333h-.823v9.404h-.002z" fill="#539266"/><path d="M44.56 13.687l-.903.854a6.852 6.852 0 0 0-2.133-1.453c-.774-.33-1.525-.496-2.26-.496-.91 0-1.783.223-2.608.673a4.88 4.88 0 0 0-1.918 1.824 4.72 4.72 0 0 0-.68 2.434c0 .877.235 1.709.706 2.497a5.023 5.023 0 0 0 1.946 1.86c.829.45 1.738.677 2.724.677 1.198 0 2.21-.338 3.039-1.012.828-.676 1.319-1.55 1.47-2.629h-3.712v-1.123h5.017c-.011 1.8-.544 3.228-1.602 4.286-1.058 1.058-2.475 1.588-4.246 1.588-2.154 0-3.857-.734-5.112-2.199a5.845 5.845 0 0 1-1.448-3.92c0-1.103.278-2.13.831-3.078a5.91 5.91 0 0 1 2.28-2.228c.966-.536 2.058-.803 3.276-.803.987 0 1.916.178 2.787.534.872.355 1.718.928 2.546 1.714zm2.87 1.078h1.132v1.259c.338-.496.694-.866 1.07-1.112a2.1 2.1 0 0 1 1.172-.367c.306 0 .633.097.98.292l-.579.935c-.232-.1-.427-.15-.585-.15-.37 0-.725.153-1.07.456-.343.304-.604.775-.782 1.414-.138.49-.206 1.482-.206 2.976v2.913h-1.133v-8.616zm9.939-.22c1.327 0 2.425.479 3.297 1.439.794.874 1.19 1.912 1.19 3.11 0 1.205-.419 2.254-1.256 3.154-.837.9-1.915 1.35-3.231 1.35-1.322 0-2.403-.45-3.24-1.35-.837-.9-1.255-1.952-1.255-3.153 0-1.193.395-2.228 1.19-3.102.87-.967 1.972-1.448 3.305-1.448zm-.006 1.083c-.92 0-1.714.342-2.374 1.021-.659.68-.992 1.505-.992 2.468 0 .623.152 1.205.453 1.74.301.54.708.956 1.225 1.248a3.36 3.36 0 0 0 1.691.439 3.36 3.36 0 0 0 1.692-.439c.513-.293.92-.708 1.224-1.247a3.51 3.51 0 0 0 .453-1.74c0-.967-.333-1.79-.998-2.469-.665-.682-1.456-1.02-2.374-1.02zm5.947-.863h1.14l2.641 6.253 2.747-6.253h.2l2.767 6.253 2.69-6.253h1.152l-3.742 8.612H72.7l-2.752-6.167-2.753 6.167h-.206l-3.678-8.612zm15.384 8.61V11.732h2.414c1.74 0 3.005.14 3.79.418 1.13.396 2.013 1.081 2.647 2.059.636.978.954 2.139.954 3.49 0 1.166-.252 2.192-.756 3.078-.505.886-1.159 1.54-1.964 1.964-.806.422-1.933.634-3.383.634h-3.702zm1.116-1.098h1.344c1.609 0 2.727-.1 3.349-.301a3.87 3.87 0 0 0 2.067-1.537c.502-.74.751-1.646.751-2.718 0-1.124-.272-2.081-.814-2.878-.545-.797-1.302-1.342-2.27-1.637-.729-.221-1.93-.333-3.602-.333h-.823v9.404h-.002z" stroke="#539266" stroke-miterlimit="10"/><path d="M92.742 11.219a.87.87 0 0 1 .645.27.89.89 0 0 1 .267.647c0 .25-.089.462-.266.642a.875.875 0 0 1-.646.27.871.871 0 0 1-.639-.27.881.881 0 0 1-.267-.642c0-.252.09-.47.267-.648a.878.878 0 0 1 .64-.27zm-.55 3.546h1.11v8.613h-1.11v-8.613z" fill="#539266"/><path d="M92.742 11.219a.87.87 0 0 1 .645.27.89.89 0 0 1 .267.647c0 .25-.089.462-.266.642a.875.875 0 0 1-.646.27.871.871 0 0 1-.639-.27.881.881 0 0 1-.267-.642c0-.252.09-.47.267-.648a.878.878 0 0 1 .64-.27zm-.55 3.546h1.11v8.613h-1.11v-8.613z" stroke="#539266" stroke-miterlimit="10"/><path d="M96.805 14.765h1.133v1.259c.338-.496.694-.866 1.069-1.113a2.1 2.1 0 0 1 1.173-.367c.306 0 .633.098.98.293l-.579.934c-.232-.1-.427-.149-.585-.149-.37 0-.725.152-1.07.456-.343.304-.604.774-.782 1.414-.138.49-.206 1.482-.206 2.976v2.913h-1.133v-8.616zm13.111 5.755l.935.49c-.307.601-.66 1.086-1.061 1.456a4.2 4.2 0 0 1-1.354.843c-.501.192-1.069.29-1.703.29-1.404 0-2.502-.462-3.294-1.383-.791-.92-1.189-1.96-1.189-3.122 0-1.092.335-2.067 1.006-2.921.848-1.087 1.99-1.631 3.414-1.631 1.468 0 2.641.556 3.518 1.668.622.786.941 1.769.952 2.944h-7.752c.02 1.001.341 1.821.957 2.46.62.64 1.382.96 2.291.96.439 0 .866-.077 1.279-.229a3.35 3.35 0 0 0 1.058-.607c.289-.253.605-.657.943-1.219zm0-2.32c-.149-.59-.364-1.064-.645-1.416a3.07 3.07 0 0 0-1.121-.855 3.458 3.458 0 0 0-1.465-.324c-.846 0-1.571.272-2.179.814-.445.396-.78.99-1.006 1.78h6.416zm12.211-1.646l-.878.548c-.759-1.01-1.794-1.51-3.107-1.51-1.05 0-1.921.337-2.612 1.011a3.3 3.3 0 0 0-1.041 2.46 3.5 3.5 0 0 0 .479 1.772 3.36 3.36 0 0 0 1.313 1.29c.556.307 1.178.459 1.869.459 1.265 0 2.3-.505 3.099-1.511l.878.579a4.16 4.16 0 0 1-1.657 1.442c-.694.341-1.485.513-2.371.513-1.362 0-2.492-.433-3.389-1.299-.898-.865-1.345-1.918-1.345-3.156 0-.834.21-1.608.628-2.322a4.436 4.436 0 0 1 1.729-1.675c.734-.401 1.554-.602 2.463-.602.57 0 1.121.086 1.651.261.53.175.981.402 1.35.682.37.281.683.626.941 1.058zm3.661-4.989h1.106v3.197h1.758v.958h-1.758v7.655h-1.106V15.72h-1.511v-.958h1.511v-3.197zm9.171 2.979c1.328 0 2.426.48 3.297 1.44.795.874 1.19 1.912 1.19 3.11 0 1.204-.418 2.254-1.256 3.154-.837.9-1.915 1.35-3.231 1.35-1.321 0-2.402-.45-3.239-1.35-.838-.9-1.256-1.952-1.256-3.154 0-1.192.396-2.227 1.19-3.102.871-.966 1.975-1.448 3.305-1.448zm-.003 1.084c-.92 0-1.711.341-2.373 1.02-.663.68-.992 1.506-.992 2.47 0 .621.152 1.203.453 1.74.301.539.708.954 1.224 1.247a3.359 3.359 0 0 0 1.691.438 3.36 3.36 0 0 0 1.692-.438c.513-.293.92-.708 1.224-1.247a3.511 3.511 0 0 0 .453-1.74c0-.967-.333-1.79-.998-2.47-.665-.679-1.459-1.02-2.374-1.02zm6.689-.863h1.132v1.259c.339-.496.694-.866 1.07-1.113a2.098 2.098 0 0 1 1.172-.367c.307 0 .634.098.981.293l-.579.934c-.232-.1-.427-.149-.585-.149-.37 0-.725.152-1.069.456-.344.304-.605.774-.783 1.414-.138.49-.207 1.482-.207 2.976v2.913h-1.132v-8.616z" fill="#539266"/><path d="M96.805 14.765h1.133v1.259c.338-.496.694-.866 1.069-1.113a2.1 2.1 0 0 1 1.173-.367c.306 0 .633.098.98.293l-.579.934c-.232-.1-.427-.149-.585-.149-.37 0-.725.152-1.07.456-.343.304-.604.774-.782 1.414-.138.49-.206 1.482-.206 2.976v2.913h-1.133v-8.616zm13.111 5.755l.935.49c-.307.601-.66 1.086-1.061 1.456a4.2 4.2 0 0 1-1.354.843c-.501.192-1.069.29-1.703.29-1.404 0-2.502-.462-3.294-1.383-.791-.92-1.189-1.96-1.189-3.122 0-1.092.335-2.067 1.006-2.921.848-1.087 1.99-1.631 3.414-1.631 1.468 0 2.641.556 3.518 1.668.622.786.941 1.769.952 2.944h-7.752c.02 1.001.341 1.821.957 2.46.62.64 1.382.96 2.291.96.439 0 .866-.077 1.279-.229a3.35 3.35 0 0 0 1.058-.607c.289-.253.605-.657.943-1.219zm0-2.32c-.149-.59-.364-1.064-.645-1.416a3.07 3.07 0 0 0-1.121-.855 3.458 3.458 0 0 0-1.465-.324c-.846 0-1.571.272-2.179.814-.445.396-.78.99-1.006 1.78h6.416zm12.211-1.646l-.878.548c-.759-1.01-1.794-1.51-3.107-1.51-1.05 0-1.921.337-2.612 1.011a3.3 3.3 0 0 0-1.041 2.46 3.5 3.5 0 0 0 .479 1.772 3.36 3.36 0 0 0 1.313 1.29c.556.307 1.178.459 1.869.459 1.265 0 2.3-.505 3.099-1.511l.878.579a4.16 4.16 0 0 1-1.657 1.442c-.694.341-1.485.513-2.371.513-1.362 0-2.492-.433-3.389-1.299-.898-.865-1.345-1.918-1.345-3.156 0-.834.21-1.608.628-2.322a4.436 4.436 0 0 1 1.729-1.675c.734-.401 1.554-.602 2.463-.602.57 0 1.121.086 1.651.261.53.175.981.402 1.35.682.37.281.683.626.941 1.058zm3.661-4.989h1.106v3.197h1.758v.958h-1.758v7.655h-1.106V15.72h-1.511v-.958h1.511v-3.197zm9.171 2.979c1.328 0 2.426.48 3.297 1.44.795.874 1.19 1.912 1.19 3.11 0 1.204-.418 2.254-1.256 3.154-.837.9-1.915 1.35-3.231 1.35-1.321 0-2.402-.45-3.239-1.35-.838-.9-1.256-1.952-1.256-3.154 0-1.192.396-2.227 1.19-3.102.871-.966 1.975-1.448 3.305-1.448zm-.003 1.084c-.92 0-1.711.341-2.373 1.02-.663.68-.992 1.506-.992 2.47 0 .621.152 1.203.453 1.74.301.539.708.954 1.224 1.247a3.359 3.359 0 0 0 1.691.438 3.36 3.36 0 0 0 1.692-.438c.513-.293.92-.708 1.224-1.247a3.511 3.511 0 0 0 .453-1.74c0-.967-.333-1.79-.998-2.47-.665-.679-1.459-1.02-2.374-1.02zm6.689-.863h1.132v1.259c.339-.496.694-.866 1.07-1.113a2.098 2.098 0 0 1 1.172-.367c.307 0 .634.098.981.293l-.579.934c-.232-.1-.427-.149-.585-.149-.37 0-.725.152-1.069.456-.344.304-.605.774-.783 1.414-.138.49-.207 1.482-.207 2.976v2.913h-1.132v-8.616z" stroke="#539266" stroke-miterlimit="10"/></svg>