<svg width="192" height="32" fill="none" xmlns="http://www.w3.org/2000/svg"><path d="M24.431 8c1.079 2.347 1.726 4.64 1.726 6.88 0 5.973-3.83 9.44-6.472 11.147h.162c5.393-.374 9.007-2.294 11.164-5.814l.485-.8c1.24-2.4 1.888-5.6 1.888-9.44 0-1.546-.108-3.253-.324-4.96-1.833.534-6.31 1.92-8.629 2.987z" fill="#ACCD72"/><path d="M7.874 14.88c0-2.187.593-4.533 1.726-6.88C7.28 6.933 2.804 5.547.97 5.013a40.884 40.884 0 0 0-.323 4.96c0 3.84.647 7.04 1.888 9.44l.215.374.27.426c2.157 3.52 5.77 5.44 11.164 5.814h.162c-2.643-1.707-6.472-5.174-6.472-11.147z" fill="#AECF7A"/><path d="M16.989.267c-1.726 1.6-7.713 7.626-7.713 14.613 0 7.307 6.418 10.56 7.713 11.147 1.294-.587 7.712-3.84 7.712-11.147 0-6.987-5.986-13.013-7.712-14.613z" fill="#51AD32"/><path d="M17.043 31.733c8.251 0 15.209-2.346 17.042-4.426H0c1.834 2.08 8.791 4.426 17.043 4.426z" fill="#AADAEA"/><path d="M42.23 16.693V2.933h-5.178v13.76h5.177zM50.426 4.96c.216.107.324.32.324.64v8.373c0 .267-.108.48-.324.587-.216.107-.593.16-1.133.16h-.27V4.8c.702 0 1.187.053 1.403.16zm-.863 11.733c2.32 0 3.937-.266 4.908-.8.97-.533 1.456-1.386 1.456-2.613V6.347c0-1.227-.485-2.134-1.348-2.614-.917-.48-2.481-.746-4.692-.746h-6.04v13.76l5.716-.054zm14.508-8.426c-.216.106-.593.16-1.133.16h-.27V4.693c.702 0 1.133.054 1.403.16.216.107.324.32.324.64V7.68c0 .267-.108.48-.324.587zm-1.402 8.426v-6.346h.054c.539 0 .97.106 1.24.266.27.214.432.48.432.854v3.466c0 .32.053.64.107.907.108.267.216.533.378.8h5.124a5.352 5.352 0 0 1-.378-.8c-.108-.267-.108-.587-.108-.853V11.52c0-.8-.323-1.387-.863-1.707-.593-.32-1.618-.533-3.128-.586v-.054c1.348-.053 2.32-.266 2.966-.64.648-.373 1.025-.96 1.025-1.653V5.44c0-.853-.485-1.493-1.402-1.92-.97-.373-2.481-.587-4.584-.587h-6.04v13.76h5.177zm8.144-3.253c0 1.28.485 2.187 1.402 2.72.917.533 2.48.8 4.638.8 2.157 0 3.721-.267 4.638-.8.917-.533 1.402-1.44 1.402-2.72V6.187c0-1.28-.485-2.187-1.402-2.72-.917-.534-2.48-.8-4.638-.8-2.157 0-3.721.266-4.638.8-.917.533-1.402 1.44-1.402 2.72v7.253zm5.339-8.693c.162-.107.377-.16.647-.16.324 0 .54.053.701.16.162.106.216.266.216.48v8.96c0 .213-.054.426-.216.533-.162.107-.377.16-.7.16-.325 0-.54-.053-.648-.16-.162-.107-.216-.267-.216-.533V5.28c.054-.213.108-.427.216-.533zm14.885 4.48c-.215.106-.593.16-1.132.16h-.324V4.693h.216c.593 0 1.025.054 1.186.16.216.107.324.32.324.64v3.2c.054.267-.054.427-.27.534zm-1.402 7.466V11.36h.593c2.266 0 3.883-.213 4.854-.693.971-.48 1.456-1.227 1.456-2.294V5.44c0-.853-.485-1.493-1.456-1.867-.97-.373-2.48-.586-4.584-.586h-6.04v13.76h5.177v-.054zm7.982-3.253c0 1.28.486 2.187 1.402 2.72.917.533 2.481.8 4.639.8 2.157 0 3.721-.267 4.638-.8.917-.533 1.402-1.44 1.402-2.72V6.187c0-1.28-.485-2.187-1.402-2.72-.917-.534-2.481-.8-4.638-.8-2.158 0-3.722.266-4.639.8-.916.533-1.402 1.44-1.402 2.72v7.253zm5.393-8.693c.162-.107.378-.16.648-.16.323 0 .593.053.701.16.161.106.215.266.215.48v8.96c0 .213-.054.426-.215.533-.162.107-.378.16-.701.16-.324 0-.54-.053-.648-.16-.161-.107-.215-.267-.215-.533V5.28c0-.213.054-.427.215-.533zm12.351 11.946v-8.16c0-.266 0-.64-.054-1.066a43.314 43.314 0 0 1-.162-1.494h.162c.162.694.324 1.334.485 1.92.162.587.27 1.014.378 1.334l2.643 7.466h6.094V2.933h-4.045l.054 5.707c0 .32 0 .853.054 1.547.054.746.108 1.546.162 2.56h-.216c-.108-.854-.162-1.547-.324-2.24a14.058 14.058 0 0 0-.431-1.76l-1.834-5.814h-7.119v13.76h4.153zm16.341 0V2.933h-5.177v13.76h5.177zm1.565-3.253c0 1.28.485 2.187 1.402 2.72.917.533 2.481.8 4.638.8s3.721-.267 4.638-.8c.917-.533 1.402-1.44 1.402-2.72v-1.973h-5.177v2.773c0 .213-.054.427-.216.533-.162.107-.377.16-.701.16-.324 0-.539-.053-.647-.16a.707.707 0 0 1-.216-.533V5.28c0-.213.054-.427.216-.48.108-.107.323-.16.647-.16s.539.053.701.16a.672.672 0 0 1 .216.48v2.453h5.177V6.24c0-1.28-.485-2.187-1.402-2.72-.917-.533-2.481-.8-4.638-.8s-3.667.267-4.638.8c-.917.533-1.402 1.44-1.402 2.72v7.2zm17.528 3.253l.647-3.68h2.589l.485 3.68h5.339l-3.074-13.76h-6.634l-4.152 13.76h4.8zm1.887-9.866c0-.107.054-.32.108-.64s.054-.747.108-1.28h.216v.64c0 .64.054 1.066.108 1.28l.593 4.213h-1.942l.809-4.213z" fill="#43A3DB"/><path d="M164.818 13.973V16.8h-3.775v-2.827h3.775zm6.688-10.986V16.8h-5.178V2.987h5.178zm12.512 0V5.76h-3.074V16.8h-5.177V5.76h-3.075V2.987h11.326z" fill="#39A3DC"/><path d="M176.521 29.333H37.051V19.04h146.751l-7.281 10.293z" fill="#D40A5C"/><path d="M50.427 26.613h-3.29v-.8l1.079-1.12c.323-.32.539-.533.593-.693.054-.16.162-.213.216-.32.053-.107.053-.16.053-.267a.405.405 0 0 0-.107-.266c-.054-.054-.162-.107-.324-.107s-.27.053-.431.107a2.956 2.956 0 0 0-.486.373l-.647-.8c.216-.213.431-.373.593-.427.162-.106.324-.16.54-.213.215-.053.377-.053.647-.053s.54.053.809.16c.216.106.431.266.54.426.107.214.215.427.215.64 0 .16 0 .32-.054.48-.054.16-.108.32-.216.427-.108.16-.216.32-.377.48-.162.16-.486.48-.971.907v.053h1.726v1.013h-.108zm5.879-2.24c0 .8-.108 1.387-.378 1.76-.27.374-.701.534-1.24.534-.54 0-.971-.214-1.24-.587-.27-.373-.432-.96-.432-1.707 0-.8.108-1.386.377-1.76.27-.373.701-.533 1.24-.533.54 0 .971.213 1.241.587.324.373.431.96.431 1.706zm-2.05 0c0 .48.054.854.108 1.067.054.213.162.267.324.267.161 0 .27-.107.323-.32.054-.214.108-.534.108-1.014s-.054-.853-.108-1.066c-.054-.214-.162-.32-.324-.32-.161 0-.27.106-.323.266a5.185 5.185 0 0 0-.108 1.12zm11.488 2.24l-.216-.853h-1.456l-.216.853h-1.348l1.456-4.48h1.618l1.51 4.48h-1.348zm-.486-1.866L65.043 24a5.503 5.503 0 0 1-.162-.64c-.054-.267-.108-.427-.108-.533 0 .106-.054.266-.108.533-.054.213-.162.693-.377 1.387h.97zm8.792 1.866h-1.62l-1.672-3.146h-.054c.054.48.054.853.054 1.12v2.026H69.68v-4.48h1.618l1.672 3.094c-.054-.427-.054-.8-.054-1.067v-2.027h1.078v4.48h.054zm7.442 0h-1.618l-1.672-3.146c.054.48.054.853.054 1.12v2.026h-1.079v-4.48h1.618l1.672 3.094c-.054-.427-.054-.8-.054-1.067v-2.027h1.079v4.48zm3.128 0v-4.48h1.24v4.48h-1.24zm11.973-2.346c0 .746-.216 1.333-.647 1.706-.432.427-1.025.587-1.726.587h-1.456v-4.48h1.564c.7 0 1.294.16 1.672.533.377.374.593.96.593 1.654zm-1.24.053c0-.427-.108-.693-.27-.907-.162-.213-.432-.32-.755-.32h-.378V25.6h.27c.377 0 .647-.107.809-.32.216-.213.323-.533.323-.96zm4.207 2.293v-4.48h1.24v4.48h-1.24zM109.537 24h1.942v2.4c-.54.16-1.133.267-1.726.267-.701 0-1.241-.214-1.618-.587-.378-.427-.593-.96-.593-1.707 0-.746.215-1.28.647-1.706.431-.427 1.024-.587 1.726-.587.269 0 .539 0 .809.053.269.054.485.107.647.214l-.378.96c-.323-.16-.701-.214-1.078-.214-.378 0-.648.107-.809.32-.216.214-.27.534-.27.96 0 .427.108.747.27.96.161.214.431.32.755.32.161 0 .323 0 .485-.053v-.693h-.809V24zm6.256.96v1.653h-1.24v-4.48h1.456c1.24 0 1.834.427 1.834 1.334 0 .533-.27.906-.755 1.226l1.294 1.974h-1.402l-.971-1.654h-.216v-.053zm0-.907h.216c.431 0 .647-.16.647-.533 0-.32-.216-.48-.647-.48h-.216v1.013zm9.492.32c0 .747-.162 1.334-.539 1.707-.378.373-.917.587-1.618.587-.701 0-1.241-.214-1.618-.587-.378-.373-.593-.96-.593-1.707 0-.746.161-1.333.539-1.706.377-.374.917-.587 1.618-.587.701 0 1.24.213 1.618.587.377.373.593.96.593 1.706zm-3.128 0c0 .854.324 1.28.917 1.28.323 0 .539-.106.701-.32.162-.213.216-.533.216-.96 0-.426-.054-.8-.216-1.013-.162-.213-.378-.32-.701-.32-.593 0-.917.427-.917 1.333zm10.949 2.24h-1.456l-.432-1.973c0-.107-.054-.267-.108-.48-.054-.213-.054-.427-.108-.587 0 .107-.054.32-.054.48-.054.214-.054.374-.107.534-.054.16-.162.853-.432 2.026h-1.456l-1.133-4.48h1.187l.485 2.24c.108.48.162.907.216 1.174 0-.214.054-.48.162-.854.054-.373.108-.64.215-.906l.378-1.707h1.133l.377 1.707c.054.266.108.586.216.96.054.373.108.64.162.8 0-.214.108-.64.215-1.174l.486-2.24h1.186l-1.132 4.48zm10.624-1.386c0 .266-.054.533-.215.746-.162.214-.324.374-.594.48-.269.107-.593.16-.97.16-.324 0-.54 0-.755-.053a3.073 3.073 0 0 1-.648-.213V25.28c.216.107.486.213.701.267.216.053.486.106.702.106.161 0 .323-.053.377-.106.108-.054.108-.16.108-.267 0-.053 0-.107-.054-.16l-.162-.16c-.054-.053-.269-.16-.593-.267-.27-.106-.539-.266-.647-.373-.108-.107-.27-.267-.324-.427a1.896 1.896 0 0 1-.108-.586c0-.427.162-.747.432-.96.323-.214.701-.32 1.24-.32.486 0 .971.106 1.456.32l-.377.906a2.432 2.432 0 0 0-1.079-.266c-.162 0-.269.053-.323.106-.054.054-.108.107-.108.214 0 .106.054.16.162.213.107.053.323.213.755.373.377.16.647.374.809.534.161.266.215.533.215.8zm6.742 1.386h-1.24V24.8h-1.403v1.813h-1.24v-4.48h1.24v1.654h1.403v-1.654h1.24v4.48zm7.335-2.24c0 .747-.162 1.334-.54 1.707-.377.373-.917.587-1.618.587-.701 0-1.24-.214-1.618-.587-.377-.373-.593-.96-.593-1.707 0-.746.162-1.333.539-1.706.378-.374.917-.587 1.618-.587.701 0 1.241.213 1.618.587.378.373.594.96.594 1.706zm-3.075 0c0 .854.324 1.28.917 1.28.324 0 .54-.106.701-.32.162-.213.216-.533.216-.96 0-.426-.054-.8-.216-1.013-.161-.213-.377-.32-.701-.32-.647 0-.917.427-.917 1.333zm9.331-.8c0 .48-.162.907-.432 1.174-.323.266-.701.426-1.294.426h-.324v1.494h-1.24v-4.48h1.564c.593 0 1.025.106 1.294.373.324.16.432.533.432 1.013zm-2.05.534h.216a.617.617 0 0 0 .432-.16.605.605 0 0 0 .161-.427c0-.32-.161-.427-.485-.427h-.324v1.014z" fill="#FEFEFE"/></svg>