<svg width="85" height="72" viewBox="0 0 85 72" fill="none" xmlns="http://www.w3.org/2000/svg">
<path d="M13.8 32.4C13.8 36.2 16.1 38.7 20.7 39.9C30.3 42.1 35.1 47.5 35.1 56.1C35.1 60.7 33.5 64.5 30.3 67.5C27.3 70.5 23.3 72 18.3 72C13.5 72 9.2 70 5.4 66C1.8 61.8 0 55.5 0 47.1C0 38.5 2.4 30 7.2 21.6C12.2 13.2 19.3 5.99999 28.5 0L33 5.7C20.2 14.1 13.8 23 13.8 32.4ZM63.6 32.4C63.6 36.2 65.9 38.7 70.5 39.9C80.1 42.1 84.9 47.5 84.9 56.1C84.9 60.7 83.3 64.5 80.1 67.5C77.1 70.5 73.1 72 68.1 72C63.3 72 59 70 55.2 66C51.6 61.8 49.8 55.5 49.8 47.1C49.8 38.5 52.2 30 57 21.6C62 13.2 69.1 5.99999 78.3 0L82.8 5.7C70 14.1 63.6 23 63.6 32.4Z" fill="#F0F2F5"/>
</svg>
