<svg width="85" height="72" fill="none" xmlns="http://www.w3.org/2000/svg"><path d="M13.8 32.4c0 3.8 2.3 6.3 6.9 7.5 9.6 2.2 14.4 7.6 14.4 16.2 0 4.6-1.6 8.4-4.8 11.4-3 3-7 4.5-12 4.5-4.8 0-9.1-2-12.9-6C1.8 61.8 0 55.5 0 47.1 0 38.5 2.4 30 7.2 21.6 12.2 13.2 19.3 6 28.5 0L33 5.7C20.2 14.1 13.8 23 13.8 32.4zm49.8 0c0 3.8 2.3 6.3 6.9 7.5 9.6 2.2 14.4 7.6 14.4 16.2 0 4.6-1.6 8.4-4.8 11.4-3 3-7 4.5-12 4.5-4.8 0-9.1-2-12.9-6-3.6-4.2-5.4-10.5-5.4-18.9 0-8.6 2.4-17.1 7.2-25.5C62 13.2 69.1 6 78.3 0l4.5 5.7C70 14.1 63.6 23 63.6 32.4z" fill="#F0F2F5"/></svg>