<svg width="44" height="48" viewBox="0 0 44 48" fill="none" xmlns="http://www.w3.org/2000/svg">
<path d="M29.0459 10.9292C29.0459 7.08923 25.9159 3.93846 21.9911 3.93846C18.0663 3.93846 14.9363 7.04 14.9363 10.9292C14.9363 14.7692 18.0663 17.92 21.9911 17.92C25.8662 17.92 29.0459 14.7692 29.0459 10.9292ZM21.9911 16.1969C19.0599 16.1969 16.6752 13.8338 16.6752 10.9292C16.6752 8.02462 19.0599 5.66154 21.9911 5.66154C24.9223 5.66154 27.307 8.02462 27.307 10.9292C27.307 13.8338 24.9223 16.1969 21.9911 16.1969Z" fill="#40AC6C"/>
<path d="M43.851 40.5662L39.7771 21.1692C39.1809 18.3138 36.6471 16.2462 33.6662 16.2462H31.5796C32.5236 14.6215 33.0204 12.8 32.9707 10.9292C32.9707 4.92308 28.0522 0 21.9414 0C15.8306 0 10.9121 4.87385 10.9121 10.9292C10.9121 12.8 11.4089 14.6215 12.3032 16.2462H10.2166C7.28537 16.2462 4.70193 18.3138 4.10575 21.1692L0.131234 40.5662C-0.564307 43.9138 1.572 47.1631 4.95034 47.8523C5.34779 47.9508 5.79492 48 6.24206 48H37.7401C41.1682 48 44 45.2431 44 41.7969C44 41.4031 43.9503 41.0092 43.851 40.5662ZM41.2178 44.6523C40.3732 45.6862 39.0815 46.2769 37.7401 46.2769H6.24206C3.75798 46.2769 1.72104 44.2585 1.72104 41.7969C1.72104 41.5015 1.77072 41.2062 1.8204 40.9108L5.89429 21.5631C6.34142 19.4954 8.17964 18.0185 10.3159 18.0185H14.0421C14.5389 18.0185 14.8866 17.6246 14.8866 17.1323C14.8866 16.9354 14.837 16.7385 14.6879 16.5908C13.3962 14.9662 12.7007 12.9969 12.7007 10.9292C12.7007 5.85846 16.8739 1.72308 21.9911 1.72308C27.1083 1.72308 31.2815 5.85846 31.2815 10.9292C31.2815 12.9969 30.586 14.9662 29.2943 16.5908C28.9962 16.9846 29.0459 17.5262 29.4433 17.8215C29.5924 17.92 29.7911 18.0185 29.9898 18.0185H33.7159C35.8522 18.0185 37.6904 19.4954 38.1376 21.5631L42.2115 40.96C42.4599 42.24 42.1121 43.6185 41.2178 44.6523Z" fill="#40AC6C"/>
<path d="M20.6994 28.2585C20.9975 27.9138 20.9975 27.3723 20.6497 27.0277C20.3019 26.6831 19.7554 26.7323 19.4077 27.0769L15.7312 31.1631C15.5822 31.36 15.3338 31.4585 15.0854 31.4585H13.744V27.6677C13.744 27.1754 13.3465 26.7815 12.8497 26.7815C12.3529 26.7815 11.9554 27.1754 11.9554 27.6677V36.9723C11.9554 37.4646 12.3529 37.8585 12.8497 37.8585C13.3465 37.8585 13.744 37.4646 13.744 36.9723V33.1815H15.0854C15.3338 33.1815 15.5822 33.28 15.7312 33.4769L19.4077 37.5631C19.5567 37.76 19.8051 37.8585 20.0535 37.8585C20.2522 37.8585 20.451 37.8092 20.6497 37.6615C20.9975 37.3662 21.0471 36.7754 20.6994 36.4308L17.0229 32.3446L20.6994 28.2585Z" fill="#40AC6C"/>
<path d="M29.3936 31.5077H27.7541C27.2573 31.5077 26.8599 31.9015 26.8599 32.3938C26.8599 32.8862 27.2573 33.28 27.7541 33.28H29.3936C29.8905 33.28 30.2879 33.6738 30.2879 34.1662V35.3477C30.2879 35.84 29.8905 36.2338 29.3936 36.2338H25.6675C25.1707 36.2338 24.7733 35.84 24.7733 35.3477V29.44C24.7733 28.9477 25.1707 28.5538 25.6675 28.5538H31.1325C31.6293 28.5538 32.0268 28.16 32.0268 27.6677C32.0268 27.1754 31.6293 26.7815 31.1325 26.7815H25.6675C24.2268 26.7815 23.0344 27.9631 23.0344 29.3908V35.2492C23.0344 36.6769 24.2268 37.8585 25.6675 37.8585H29.3936C30.8344 37.8585 32.0268 36.6769 32.0268 35.2492V34.0677C32.0268 32.64 30.8344 31.5077 29.3936 31.5077Z" fill="#40AC6C"/>
</svg>
